<?xml version="1.0" encoding="UTF-8"?>
<svg version="1.1" xmlns="http://www.w3.org/2000/svg" width="326" height="398">
<path d="M0 0 C0.66 0 1.32 0 2 0 C5.78723853 9.33335521 9.56889287 18.66895107 13.34339142 28.00746632 C15.09612898 32.3434203 16.85079645 36.67857236 18.60986328 41.01196289 C20.30669232 45.19223589 21.99846608 49.37452134 23.6867218 53.55826378 C24.33241836 55.15582011 24.97994764 56.75263694 25.62931824 58.34870338 C26.53700693 60.58056804 27.43820336 62.81494909 28.33789062 65.05004883 C28.60906204 65.71251617 28.88023346 66.37498352 29.15962219 67.05752563 C30.28870037 69.87983663 31 71.92697879 31 75 C32.155 75.061875 33.31 75.12375 34.5 75.1875 C68.68845877 79.08712108 103.39561266 102.75294766 124.875 128.625 C126.26013313 130.40884435 127.6352969 132.20047787 129 134 C129.72316406 134.89589844 130.44632812 135.79179687 131.19140625 136.71484375 C153.15528592 164.56122336 163.48313322 199.55302409 163.3125 234.6875 C163.31034485 235.48535919 163.3081897 236.28321838 163.30596924 237.10525513 C163.25583924 248.66108923 162.89489711 259.758674 160 271 C159.80664062 271.8029248 159.61328125 272.60584961 159.4140625 273.43310547 C148.73878501 317.19680093 121.13333453 352.90444017 83.05078125 376.484375 C61.37239456 389.44311697 35.34220092 398.04111531 9.9765625 398.203125 C9.23736069 398.21018463 8.49815887 398.21724426 7.73655701 398.22451782 C-22.60836462 398.44865068 -22.60836462 398.44865068 -36 395 C-36.8029248 394.80664062 -37.60584961 394.61328125 -38.43310547 394.4140625 C-80.88023042 384.05993603 -116.95297064 357.8333612 -139.875 320.62890625 C-143.65638178 314.28678104 -146.9073277 307.69994913 -150 301 C-150.53496094 299.8553125 -151.06992188 298.710625 -151.62109375 297.53125 C-158.64921186 281.32094121 -163.04023515 262.80452138 -163.23828125 245.1171875 C-163.24802979 244.3887413 -163.25777832 243.6602951 -163.26782227 242.90977478 C-163.44185105 226.53464513 -163.09939814 210.95982571 -159 195 C-158.73509766 193.89615967 -158.73509766 193.89615967 -158.46484375 192.77001953 C-152.71599011 169.08793636 -140.77634636 146.51186444 -124.375 128.51464844 C-122.97944302 126.97735521 -121.6134277 125.417374 -120.25 123.8515625 C-114.37320957 117.17533654 -108.06292636 111.42084544 -101 106 C-100.10023437 105.27296875 -99.20046875 104.5459375 -98.2734375 103.796875 C-80.4140268 89.72582415 -52.39804967 74 -29 74 C-28.62834717 72.82638916 -28.25669434 71.65277832 -27.8737793 70.44360352 C-25.55099181 63.48405071 -22.75670091 56.70618552 -20.01953125 49.90234375 C-19.44066533 48.45798187 -18.86203045 47.01352737 -18.28361511 45.56898499 C-16.77183825 41.79522835 -15.25695718 38.02272563 -13.74139404 34.25048828 C-12.19092887 30.38975969 -10.64344719 26.5278357 -9.09570312 22.66601562 C-6.06669684 15.10951361 -3.03440532 7.55433557 0 0 Z " fill="#CEEEF1" transform="translate(163,0)"/>
<path d="M0 0 C0.66 0 1.32 0 2 0 C5.78723853 9.33335521 9.56889287 18.66895107 13.34339142 28.00746632 C15.09612898 32.3434203 16.85079645 36.67857236 18.60986328 41.01196289 C20.30669232 45.19223589 21.99846608 49.37452134 23.6867218 53.55826378 C24.33241836 55.15582011 24.97994764 56.75263694 25.62931824 58.34870338 C26.53700693 60.58056804 27.43820336 62.81494909 28.33789062 65.05004883 C28.60906204 65.71251617 28.88023346 66.37498352 29.15962219 67.05752563 C30.28870037 69.87983663 31 71.92697879 31 75 C32.155 75.061875 33.31 75.12375 34.5 75.1875 C68.68845877 79.08712108 103.39561266 102.75294766 124.875 128.625 C126.26013313 130.40884435 127.6352969 132.20047787 129 134 C129.72316406 134.89589844 130.44632812 135.79179687 131.19140625 136.71484375 C153.15528592 164.56122336 163.48313322 199.55302409 163.3125 234.6875 C163.31034485 235.48535919 163.3081897 236.28321838 163.30596924 237.10525513 C163.25583924 248.66108923 162.89489711 259.758674 160 271 C159.80664062 271.8029248 159.61328125 272.60584961 159.4140625 273.43310547 C148.73878501 317.19680093 121.13333453 352.90444017 83.05078125 376.484375 C61.37239456 389.44311697 35.34220092 398.04111531 9.9765625 398.203125 C9.23736069 398.21018463 8.49815887 398.21724426 7.73655701 398.22451782 C-22.60836462 398.44865068 -22.60836462 398.44865068 -36 395 C-36.8029248 394.80664062 -37.60584961 394.61328125 -38.43310547 394.4140625 C-80.88023042 384.05993603 -116.95297064 357.8333612 -139.875 320.62890625 C-143.65638178 314.28678104 -146.9073277 307.69994913 -150 301 C-150.53496094 299.8553125 -151.06992188 298.710625 -151.62109375 297.53125 C-158.64921186 281.32094121 -163.04023515 262.80452138 -163.23828125 245.1171875 C-163.24802979 244.3887413 -163.25777832 243.6602951 -163.26782227 242.90977478 C-163.44185105 226.53464513 -163.09939814 210.95982571 -159 195 C-158.73509766 193.89615967 -158.73509766 193.89615967 -158.46484375 192.77001953 C-152.71599011 169.08793636 -140.77634636 146.51186444 -124.375 128.51464844 C-122.97944302 126.97735521 -121.6134277 125.417374 -120.25 123.8515625 C-114.37320957 117.17533654 -108.06292636 111.42084544 -101 106 C-100.10023437 105.27296875 -99.20046875 104.5459375 -98.2734375 103.796875 C-80.4140268 89.72582415 -52.39804967 74 -29 74 C-28.62834717 72.82638916 -28.25669434 71.65277832 -27.8737793 70.44360352 C-25.55099181 63.48405071 -22.75670091 56.70618552 -20.01953125 49.90234375 C-19.44066533 48.45798187 -18.86203045 47.01352737 -18.28361511 45.56898499 C-16.77183825 41.79522835 -15.25695718 38.02272563 -13.74139404 34.25048828 C-12.19092887 30.38975969 -10.64344719 26.5278357 -9.09570312 22.66601562 C-6.06669684 15.10951361 -3.03440532 7.55433557 0 0 Z M-32 97 C-33.00788574 97.22550537 -33.00788574 97.22550537 -34.03613281 97.45556641 C-68.73928239 105.47744184 -100.00343861 128.69513234 -119.0625 158.5625 C-137.73697552 188.94271003 -146.4058853 224.59881778 -139 260 C-138.89042969 260.82757813 -138.78085938 261.65515625 -138.66796875 262.5078125 C-134.70306077 291.00286547 -117.86384363 316.95745051 -98 337 C-97.22398438 337.78890625 -96.44796875 338.5778125 -95.6484375 339.390625 C-68.08157208 365.72598097 -31.43139164 376.68300904 5.8828125 376.1953125 C12.42785023 376.03867573 18.5858268 375.34183742 25 374 C25.82757813 373.89042969 26.65515625 373.78085937 27.5078125 373.66796875 C56.00286547 369.70306077 81.95745051 352.86384363 102 333 C102.78890625 332.22398437 103.5778125 331.44796875 104.390625 330.6484375 C131.14821772 302.63959045 141.58418324 265.36391834 141.21484375 227.56640625 C141.02024869 219.15530693 139.92483273 211.17810628 138 203 C137.84966309 202.32807617 137.69932617 201.65615234 137.54443359 200.96386719 C129.50855716 166.20014838 106.24587477 134.93273903 76.3125 115.875 C43.94229339 95.96289845 5.33978006 88.21155581 -32 97 Z " fill="#187888" transform="translate(163,0)"/>
<path d="M0 0 C1.43085938 0.32484375 1.43085938 0.32484375 2.890625 0.65625 C36.04150592 8.79857163 64.08079337 30.55426093 81.8671875 59.3984375 C98.97963495 87.90891476 105.07514155 122.54989415 97 155 C96.7834375 155.95390625 96.566875 156.9078125 96.34375 157.890625 C91.81600716 176.32500658 82.84293062 193.28674078 71 208 C70.46890625 208.68449219 69.9378125 209.36898437 69.390625 210.07421875 C68.31663922 211.4293361 67.16839578 212.72538642 66 214 C65.34 214 64.68 214 64 214 C63.98018066 213.2157666 63.96036133 212.4315332 63.93994141 211.62353516 C63.27484545 186.52994249 61.01037297 164.23696439 54 140 C53.64446045 138.7637085 53.64446045 138.7637085 53.28173828 137.50244141 C47.53854092 118.13364791 37.08217137 100.08086309 25 84 C24.32195312 83.07960938 23.64390625 82.15921875 22.9453125 81.2109375 C3.62266315 56.3245681 -24.91815188 33.37305108 -55 23 C-55.97582031 22.55269531 -56.95164063 22.10539062 -57.95703125 21.64453125 C-64.26529419 18.91061581 -71.02366035 17.34816636 -77.63476562 15.51757812 C-78.67955078 15.22173828 -79.72433594 14.92589844 -80.80078125 14.62109375 C-81.75122314 14.3573999 -82.70166504 14.09370605 -83.6809082 13.82202148 C-86 13 -86 13 -88 11 C-61.77107537 -3.50305244 -28.9972855 -7.21591436 0 0 Z " fill="#010101" transform="translate(192,109)"/>
<path d="M0 0 C1.24136719 0.16435547 1.24136719 0.16435547 2.5078125 0.33203125 C35.27993439 4.89206656 66.37442221 26.39300515 86.671875 51.83203125 C109.38508581 82.73876609 120.92849405 120.02389653 115.125 158.4375 C114.76114824 160.29388652 114.38735764 162.14837555 114 164 C113.83564453 165.24136719 113.83564453 165.24136719 113.66796875 166.5078125 C109.70306077 195.00286547 92.86384363 220.95745051 73 241 C72.22398437 241.78890625 71.44796875 242.5778125 70.6484375 243.390625 C42.63959045 270.14821772 5.36391834 280.58418324 -32.43359375 280.21484375 C-40.84469307 280.02024869 -48.82189372 278.92483273 -57 277 C-58.00788574 276.77449463 -58.00788574 276.77449463 -59.03613281 276.54443359 C-85.18459721 270.5000334 -108.22038005 255.82628567 -127 237 C-127.78503906 236.2265625 -128.57007813 235.453125 -129.37890625 234.65625 C-156.15911882 206.6783535 -166.58401962 169.34717417 -166.21484375 131.56640625 C-166.02024869 123.15530693 -164.92483273 115.17810628 -163 107 C-162.77449463 105.99211426 -162.77449463 105.99211426 -162.54443359 104.96386719 C-156.5000334 78.81540279 -141.82628567 55.77961995 -123 37 C-122.2265625 36.21496094 -121.453125 35.42992187 -120.65625 34.62109375 C-89.50490975 4.8032869 -42.14767259 -8.81724308 0 0 Z M-50 12 C-50.70366699 12.15065918 -51.40733398 12.30131836 -52.13232422 12.45654297 C-87.43169361 20.25341196 -115.74452295 41.1722413 -135.14404297 71.49121094 C-153.78761601 101.70176718 -157.98810534 138.43778135 -149.8984375 172.71875 C-140.69275216 206.33951385 -118.93930853 234.01911372 -89.02319336 251.78735352 C-59.46085233 268.46731708 -23.7336043 273.03943645 9 264 C9.67272949 263.81808105 10.34545898 263.63616211 11.03857422 263.44873047 C43.80002684 254.30428909 71.35732911 231.43506135 88 202 C93.14494884 192.36569765 97.21996236 182.58033743 100 172 C100.28617188 170.948125 100.57234375 169.89625 100.8671875 168.8125 C108.97560024 137.92330862 103.59817805 102.80240162 87.77685547 75.19946289 C83.72162288 68.33616653 79.25566106 62.00919505 74 56 C73.15566406 55.02289063 72.31132812 54.04578125 71.44140625 53.0390625 C54.64511144 33.94674104 32.59017283 20.46119337 8 14 C6.4221875 13.57074219 6.4221875 13.57074219 4.8125 13.1328125 C-12.6642459 8.5451667 -32.30957626 8.19067538 -50 12 Z " fill="#FAFCFC" transform="translate(188,96)"/>
<path d="M0 0 C0.33 0 0.66 0 1 0 C3.945836 12.66995484 4.24453219 25.67022852 4.8125 38.625 C4.85109131 39.29998535 4.88968262 39.9749707 4.92944336 40.67041016 C5.04148692 42.64645107 5.12471796 44.62406004 5.20703125 46.6015625 C5.2635083 47.75994629 5.31998535 48.91833008 5.37817383 50.11181641 C5 53 5 53 2.98706055 54.89990234 C2.33133057 55.26293457 1.67560059 55.6259668 1 56 C1.00523682 55.10394043 1.01047363 54.20788086 1.01586914 53.28466797 C1.03313909 49.8888278 1.04555908 46.49303579 1.05493164 43.09716797 C1.05989187 41.64078016 1.06666215 40.18439715 1.07543945 38.72802734 C1.12591744 30.1230146 0.95075432 21.62632209 0.22265625 13.04296875 C-0.09570276 8.69206229 -0.09040271 4.3594198 0 0 Z " fill="#728B90" transform="translate(252,271)"/>
</svg>
