<?xml version="1.0" encoding="UTF-8"?>
<svg version="1.1" xmlns="http://www.w3.org/2000/svg" width="326" height="398">
<path d="M0 0 C0.66 0 1.32 0 2 0 C5.78723853 9.33335521 9.56889287 18.66895107 13.34339142 28.00746632 C15.09612898 32.3434203 16.85079645 36.67857236 18.60986328 41.01196289 C20.30669232 45.19223589 21.99846608 49.37452134 23.6867218 53.55826378 C24.33241836 55.15582011 24.97994764 56.75263694 25.62931824 58.34870338 C26.53700693 60.58056804 27.43820336 62.81494909 28.33789062 65.05004883 C28.60906204 65.71251617 28.88023346 66.37498352 29.15962219 67.05752563 C30.28870037 69.87983663 31 71.92697879 31 75 C32.155 75.061875 33.31 75.12375 34.5 75.1875 C68.68938102 79.08722627 103.23878286 102.72508532 124.8125 128.5 C126.22660844 130.31927434 127.621976 132.15324293 129 134 C129.79664063 135.04285156 130.59328125 136.08570313 131.4140625 137.16015625 C152.83039674 165.7319285 163.48546451 199.0729967 163.3125 234.6875 C163.31034485 235.48535919 163.3081897 236.28321838 163.30596924 237.10525513 C163.25583924 248.66108923 162.89489711 259.758674 160 271 C159.80664062 271.8029248 159.61328125 272.60584961 159.4140625 273.43310547 C148.73878501 317.19680093 121.13333453 352.90444017 83.05078125 376.484375 C72.89716864 382.54550588 62.09374215 386.96347052 51 391 C50.26225342 391.2688501 49.52450684 391.5377002 48.7644043 391.81469727 C32.84857882 397.37813951 16.28061678 398.38478596 -0.4375 398.375 C-1.55760971 398.37758316 -1.55760971 398.37758316 -2.7003479 398.38021851 C-11.02578008 398.37804479 -19.25680985 398.0105544 -27.53515625 397.1015625 C-28.26979599 397.02457123 -29.00443573 396.94757996 -29.76133728 396.86825562 C-31.51837468 396.65408247 -33.26225582 396.33659427 -35 396 C-35.33 395.34 -35.66 394.68 -36 394 C-37.485 394.0928125 -37.485 394.0928125 -39 394.1875 C-43.37435184 394.18422823 -46.986649 392.59078649 -51 391 C-52.50735946 390.4349878 -54.01518536 389.87121867 -55.5234375 389.30859375 C-72.06876892 382.98853545 -87.25165562 375.26054873 -101 364 C-101.80993408 363.34016113 -101.80993408 363.34016113 -102.63623047 362.66699219 C-123.52993802 345.57595139 -138.704956 325.46952435 -150 301 C-150.53496094 299.8553125 -151.06992188 298.710625 -151.62109375 297.53125 C-158.64921186 281.32094121 -163.04023515 262.80452138 -163.23828125 245.1171875 C-163.24802979 244.3887413 -163.25777832 243.6602951 -163.26782227 242.90977478 C-163.44185105 226.53464513 -163.09939814 210.95982571 -159 195 C-158.73509766 193.89615967 -158.73509766 193.89615967 -158.46484375 192.77001953 C-152.71599011 169.08793636 -140.77634636 146.51186444 -124.375 128.51464844 C-122.97944302 126.97735521 -121.6134277 125.417374 -120.25 123.8515625 C-114.37270921 117.17476811 -108.06071826 111.4244563 -101 106 C-100.1234375 105.28457031 -99.246875 104.56914063 -98.34375 103.83203125 C-80.6376406 89.78153714 -52.37705671 74 -29 74 C-28.62834717 72.82638916 -28.25669434 71.65277832 -27.8737793 70.44360352 C-25.55099181 63.48405071 -22.75670091 56.70618552 -20.01953125 49.90234375 C-19.44066533 48.45798187 -18.86203045 47.01352737 -18.28361511 45.56898499 C-16.77183825 41.79522835 -15.25695718 38.02272563 -13.74139404 34.25048828 C-12.19092887 30.38975969 -10.64344719 26.5278357 -9.09570312 22.66601562 C-6.06669684 15.10951361 -3.03440532 7.55433557 0 0 Z " fill="#819CD9" transform="translate(163,0)"/>
<path d="M0 0 C0.75845215 0.32742187 1.5169043 0.65484375 2.29833984 0.9921875 C36.83398274 16.10682465 62.03548557 41.67921774 76 77 C87.52070764 110.21804037 85.02790416 146.24452639 70.09326172 177.92333984 C55.06106535 208.7912179 28.60552783 231.20099009 -3.30078125 243.24609375 C-6.5132173 244.29513576 -9.72201666 245.1777511 -13 246 C-13.69818848 246.18046875 -14.39637695 246.3609375 -15.11572266 246.546875 C-26.78994531 249.50858051 -37.95312282 250.85250523 -50 250 C-51.56422584 248.43577416 -51.42160514 246.72073748 -51.6875 244.5625 C-51.79449219 243.75941406 -51.90148437 242.95632813 -52.01171875 242.12890625 C-52 240 -52 240 -50 238 C-50 236.68 -50 235.36 -50 234 C-50.66 233.34 -51.32 232.68 -52 232 C-51.34 232 -50.68 232 -50 232 C-50 229.36 -50 226.72 -50 224 C-49.505 224.99 -49.505 224.99 -49 226 C-48.34 226 -47.68 226 -47 226 C-47.495 214.615 -47.495 214.615 -48 203 C-47.34 203.33 -46.68 203.66 -46 204 C-47.644497 182.19623809 -51.37447722 160.5490017 -55 139 C-54.01 138.67 -53.02 138.34 -52 138 C-50.38526115 141.66007473 -49.60645022 145.05534182 -49 149 C-49.01047363 148.39003174 -49.02094727 147.78006348 -49.03173828 147.15161133 C-49.07346621 144.37194993 -49.09937922 141.59235461 -49.125 138.8125 C-49.14175781 137.85279297 -49.15851563 136.89308594 -49.17578125 135.90429688 C-49.18222656 134.97294922 -49.18867188 134.04160156 -49.1953125 133.08203125 C-49.20578613 132.22843018 -49.21625977 131.3748291 -49.22705078 130.49536133 C-48.9715075 127.68685825 -48.06783025 125.59625722 -47 123 C-46.92353835 120.6679198 -46.90856701 118.33154122 -47 116 C-47.78375 115.855625 -48.5675 115.71125 -49.375 115.5625 C-52 115 -52 115 -54 114 C-54.125 109.25 -54.125 109.25 -53 107 C-52.58320703 104.54230847 -52.58320703 104.54230847 -53 102 C-53.680625 101.5875 -54.36125 101.175 -55.0625 100.75 C-55.701875 100.1725 -56.34125 99.595 -57 99 C-57.14372192 95.24167189 -56.45388993 91.58554794 -55.421875 87.98046875 C-54.94182399 85.72689594 -55.09679075 84.02139499 -55.4375 81.75 C-55.623125 80.5125 -55.80875 79.275 -56 78 C-56.99 78 -57.98 78 -59 78 C-63.71943632 61.0139296 -63.71943632 61.0139296 -61.39453125 54.06640625 C-60.60533908 49.93291458 -62.25083509 45.73550471 -64 42 C-64.66 41.67 -65.32 41.34 -66 41 C-65.67 40.01 -65.34 39.02 -65 38 C-65.99 37.67 -66.98 37.34 -68 37 C-68.33 35.35 -68.66 33.7 -69 32 C-68.01 31.505 -68.01 31.505 -67 31 C-66.34227572 27.97065509 -66.34227572 27.97065509 -66 25 C-66.66 25 -67.32 25 -68 25 C-68.268125 24.21625 -68.53625 23.4325 -68.8125 22.625 C-69.84814432 19.71885077 -69.84814432 19.71885077 -73 18 C-74.99220196 14.12627397 -75.43427187 10.28337012 -76 6 C-76.33 5.34 -76.66 4.68 -77 4 C-76.67 3.01 -76.34 2.02 -76 1 C-76.66 1 -77.32 1 -78 1 C-77.67 -0.32 -77.34 -1.64 -77 -3 C-76.34 -3 -75.68 -3 -75 -3 C-75 -3.66 -75 -4.32 -75 -5 C-68.88169306 -6.91946884 -63.45288681 -7.14900167 -57.05078125 -6.97265625 C-16.89408708 -7.3325754 -16.89408708 -7.3325754 0 0 Z " fill="#63779D" transform="translate(209,114)"/>
<path d="M0 0 C0.66 0 1.32 0 2 0 C5.78723853 9.33335521 9.56889287 18.66895107 13.34339142 28.00746632 C15.09612898 32.3434203 16.85079645 36.67857236 18.60986328 41.01196289 C20.30669232 45.19223589 21.99846608 49.37452134 23.6867218 53.55826378 C24.33241836 55.15582011 24.97994764 56.75263694 25.62931824 58.34870338 C26.53700693 60.58056804 27.43820336 62.81494909 28.33789062 65.05004883 C28.60906204 65.71251617 28.88023346 66.37498352 29.15962219 67.05752563 C30.28870037 69.87983663 31 71.92697879 31 75 C32.155 75.061875 33.31 75.12375 34.5 75.1875 C68.68938102 79.08722627 103.23878286 102.72508532 124.8125 128.5 C126.22660844 130.31927434 127.621976 132.15324293 129 134 C129.79664063 135.04285156 130.59328125 136.08570313 131.4140625 137.16015625 C152.83039674 165.7319285 163.48546451 199.0729967 163.3125 234.6875 C163.31034485 235.48535919 163.3081897 236.28321838 163.30596924 237.10525513 C163.25583924 248.66108923 162.89489711 259.758674 160 271 C159.80664062 271.8029248 159.61328125 272.60584961 159.4140625 273.43310547 C148.73878501 317.19680093 121.13333453 352.90444017 83.05078125 376.484375 C72.89716864 382.54550588 62.09374215 386.96347052 51 391 C50.26225342 391.2688501 49.52450684 391.5377002 48.7644043 391.81469727 C32.84857882 397.37813951 16.28061678 398.38478596 -0.4375 398.375 C-1.55760971 398.37758316 -1.55760971 398.37758316 -2.7003479 398.38021851 C-11.02578008 398.37804479 -19.25680985 398.0105544 -27.53515625 397.1015625 C-28.26979599 397.02457123 -29.00443573 396.94757996 -29.76133728 396.86825562 C-31.51837468 396.65408247 -33.26225582 396.33659427 -35 396 C-35.33 395.34 -35.66 394.68 -36 394 C-37.485 394.0928125 -37.485 394.0928125 -39 394.1875 C-43.37435184 394.18422823 -46.986649 392.59078649 -51 391 C-52.50735946 390.4349878 -54.01518536 389.87121867 -55.5234375 389.30859375 C-72.06876892 382.98853545 -87.25165562 375.26054873 -101 364 C-101.80993408 363.34016113 -101.80993408 363.34016113 -102.63623047 362.66699219 C-123.52993802 345.57595139 -138.704956 325.46952435 -150 301 C-150.53496094 299.8553125 -151.06992188 298.710625 -151.62109375 297.53125 C-158.64921186 281.32094121 -163.04023515 262.80452138 -163.23828125 245.1171875 C-163.24802979 244.3887413 -163.25777832 243.6602951 -163.26782227 242.90977478 C-163.44185105 226.53464513 -163.09939814 210.95982571 -159 195 C-158.73509766 193.89615967 -158.73509766 193.89615967 -158.46484375 192.77001953 C-152.71599011 169.08793636 -140.77634636 146.51186444 -124.375 128.51464844 C-122.97944302 126.97735521 -121.6134277 125.417374 -120.25 123.8515625 C-114.37270921 117.17476811 -108.06071826 111.4244563 -101 106 C-100.1234375 105.28457031 -99.246875 104.56914063 -98.34375 103.83203125 C-80.6376406 89.78153714 -52.37705671 74 -29 74 C-28.62834717 72.82638916 -28.25669434 71.65277832 -27.8737793 70.44360352 C-25.55099181 63.48405071 -22.75670091 56.70618552 -20.01953125 49.90234375 C-19.44066533 48.45798187 -18.86203045 47.01352737 -18.28361511 45.56898499 C-16.77183825 41.79522835 -15.25695718 38.02272563 -13.74139404 34.25048828 C-12.19092887 30.38975969 -10.64344719 26.5278357 -9.09570312 22.66601562 C-6.06669684 15.10951361 -3.03440532 7.55433557 0 0 Z M-32 97 C-32.65049316 97.15033691 -33.30098633 97.30067383 -33.97119141 97.45556641 C-68.72444461 105.55708731 -99.95148145 128.61371052 -119.0625 158.5625 C-138.80119616 190.67401684 -147.10818473 228.92845054 -138.31640625 266.125 C-131.14677373 293.54898197 -117.91270841 316.90814611 -98 337 C-97.22398438 337.78890625 -96.44796875 338.5778125 -95.6484375 339.390625 C-67.6374732 366.15024038 -30.41852146 376.83025358 7.4609375 376.30859375 C43.57207624 375.21829252 76.68772317 358.08658437 102 333 C102.78890625 332.22398437 103.5778125 331.44796875 104.390625 330.6484375 C121.18275838 313.07106048 131.8832961 290.2995446 138 267 C138.17789062 266.3395166 138.35578125 265.6790332 138.5390625 264.99853516 C143.5647268 245.4293562 142.95663701 222.52308045 138 203 C137.84966309 202.34950684 137.69932617 201.69901367 137.54443359 201.02880859 C129.42879027 166.21497414 106.32748733 134.98469945 76.3125 115.875 C62.38552641 107.30800765 47.79325164 101.19949952 32 97 C31.00492432 96.73098877 31.00492432 96.73098877 29.98974609 96.45654297 C10.42392401 91.43416651 -12.48118653 92.04444632 -32 97 Z " fill="#0C3CA9" transform="translate(163,0)"/>
<path d="M0 0 C29.56036152 24.38396938 49.47526252 58.02507781 53.734375 96.43066406 C56.20438106 135.90130591 46.06078756 173.66461035 19.7890625 203.86425781 C16.86218826 207.14452153 13.82864014 210.30856124 10.734375 213.43066406 C9.95835937 214.21957031 9.18234375 215.00847656 8.3828125 215.82128906 C-9.19456452 232.61342244 -31.9660804 243.31396016 -55.265625 249.43066406 C-55.9261084 249.60855469 -56.5865918 249.78644531 -57.26708984 249.96972656 C-76.8362688 254.99539087 -99.74254455 254.38730107 -119.265625 249.43066406 C-119.91611816 249.28032715 -120.56661133 249.12999023 -121.23681641 248.97509766 C-147.42881454 242.86933774 -170.43618343 228.30689515 -189.265625 209.43066406 C-190.05066406 208.65722656 -190.83570313 207.88378906 -191.64453125 207.08691406 C-208.45210571 189.52765917 -219.15040289 166.72456428 -225.265625 143.43066406 C-225.44351563 142.77018066 -225.62140625 142.10969727 -225.8046875 141.42919922 C-230.8303518 121.86002026 -230.22226201 98.95374451 -225.265625 79.43066406 C-225.11528809 78.7801709 -224.96495117 78.12967773 -224.81005859 77.45947266 C-218.70429868 51.26747452 -204.14185609 28.26010563 -185.265625 9.43066406 C-184.4921875 8.645625 -183.71875 7.86058594 -182.921875 7.05175781 C-133.72638229 -40.03776346 -52.7853314 -41.90144006 0 0 Z M-93.3046875 -17.03808594 C-96.15393748 -16.58701734 -98.52454985 -16.63111608 -101.390625 -16.81933594 C-126.49607567 -17.00645731 -151.51867395 -3.25532806 -170.265625 12.43066406 C-170.8004248 12.87361816 -171.33522461 13.31657227 -171.88623047 13.77294922 C-196.46539647 34.4094073 -213.02243136 65.02169222 -216.09350586 97.08105469 C-217.3698041 114.50388348 -215.70930899 130.55736116 -211.265625 147.43066406 C-211.07871094 148.15576172 -210.89179688 148.88085938 -210.69921875 149.62792969 C-206.27832765 166.1817108 -197.41046024 181.52266504 -186.265625 194.43066406 C-185.58161621 195.23793945 -185.58161621 195.23793945 -184.88378906 196.06152344 C-163.54158372 221.05109263 -134.5851215 235.59587759 -102.265625 240.43066406 C-65.0259164 242.84228549 -30.35236284 233.2076633 -1.95703125 208.58300781 C22.46793315 186.94674821 39.02754971 156.10854794 41.609375 123.29785156 C43.23965682 85.90326242 33.3651373 51.88708473 7.921875 23.74316406 C-10.05638148 4.54726827 -33.27472578 -9.65213879 -59.265625 -14.56933594 C-60.00200195 -14.7159668 -60.73837891 -14.86259766 -61.49707031 -15.01367188 C-71.99322915 -17.07914537 -82.63365852 -18.90345861 -93.3046875 -17.03808594 Z " fill="#F9FAFC" transform="translate(250.265625,123.5693359375)"/>
<path d="M0 0 C5.87103224 5.46473243 9.30376661 12.00082527 13 19 C13.47687256 19.89452881 13.47687256 19.89452881 13.96337891 20.80712891 C28.83317455 49.15097116 30.91004417 83.72418347 22.1875 114.28515625 C11.53199843 147.61864966 -10.05876439 175.6156814 -41.23486328 192.18798828 C-43.53865437 193.364731 -45.8557344 194.50478942 -48.1875 195.625 C-49.28408936 196.15782593 -49.28408936 196.15782593 -50.40283203 196.70141602 C-55.62996948 199.12334351 -55.62996948 199.12334351 -59 198 C-58.505 197.01 -58.505 197.01 -58 196 C-58.33 195.01 -58.66 194.02 -59 193 C-56.92446352 192.4465236 -55.15634036 192 -53 192 C-52.505 190.02 -52.505 190.02 -52 188 C-51.34 188 -50.68 188 -50 188 C-49.855625 186.741875 -49.71125 185.48375 -49.5625 184.1875 C-49.26251314 181.57332877 -48.84186703 179.52560108 -48 177 C-47.34 177 -46.68 177 -46 177 C-45.81824219 176.14728516 -45.81824219 176.14728516 -45.6328125 175.27734375 C-43.1497006 163.83592814 -43.1497006 163.83592814 -41.0625 158.6875 C-39.42524509 154.54620816 -38.25145566 150.27113721 -37 146 C-35.32571051 140.32650091 -33.59773003 134.69134465 -31.6484375 129.10546875 C-30.95067702 126.97391436 -30.95067702 126.97391436 -30.5390625 124.6171875 C-29.92207714 121.62167888 -28.99431299 118.82904992 -28 115.9375 C-26.86909047 112.64039978 -25.80593549 109.39073759 -25 106 C-24.690625 104.96875 -24.38125 103.9375 -24.0625 102.875 C-23.20566769 99.93908928 -22.61110326 97.00817453 -22.0625 94 C-21.23080927 89.67910673 -19.77092904 86.03771821 -18 82 C-16.45244817 77.06396975 -15.16945527 72.18618688 -14.4375 67.0625 C-14 64 -14 64 -13.03125 62.0703125 C-11.96708809 59.93392685 -11.49748546 58.15313603 -11.0625 55.8125 C-10.815 54.49378906 -10.815 54.49378906 -10.5625 53.1484375 C-10.2840625 51.58996094 -10.2840625 51.58996094 -10 50 C-9.6596875 48.10121094 -9.6596875 48.10121094 -9.3125 46.1640625 C-8.26189259 40.25942677 -7.23371318 34.35091785 -6.2109375 28.44140625 C-4.5430316 18.83891414 -2.78589846 9.35265911 0 0 Z " fill="#010101" transform="translate(265,157)"/>
<path d="M0 0 C-0.99 0.495 -0.99 0.495 -2 1 C-2.65213292 3.02463255 -2.65213292 3.02463255 -3 5 C-2.34 5 -1.68 5 -1 5 C-0.855625 5.94875 -0.71125 6.8975 -0.5625 7.875 C-0.17064601 10.8934494 -0.17064601 10.8934494 1 13 C1.34022786 14.99883869 1.67329097 16.99890722 2 19 C2.75150023 22.27773504 2.75150023 22.27773504 6 24 C6.6875 26.625 6.6875 26.625 7 29 C7.66 29 8.32 29 9 29 C9 30.98 9 32.96 9 35 C7.515 35.495 7.515 35.495 6 36 C7.11854586 39.72614153 7.11854586 39.72614153 10 42 C10.33 42.99 10.66 43.98 11 45 C11.32484375 45.62132812 11.6496875 46.24265625 11.984375 46.8828125 C13.0987654 49.20588787 13.70133615 51.35898434 14.25 53.875 C14.44078125 54.69742188 14.6315625 55.51984375 14.828125 56.3671875 C15 59 15 59 13.9609375 61.87109375 C12.7441086 65.83320735 13.37388402 68.19587091 14.375 72.1875 C16 78.82173913 16 78.82173913 16 82 C16.66 82 17.32 82 18 82 C18.33 80.68 18.66 79.36 19 78 C21.57001647 91.14662273 21.57001647 91.14662273 19 98 C18.49758678 100.6704053 18.49758678 100.6704053 19 103 C19.66 103.45375 20.32 103.9075 21 104.375 C21.66 104.91125 22.32 105.4475 23 106 C23.25 109.6875 23.25 109.6875 23 113 C22.34 113 21.68 113 21 113 C21 114.65 21 116.3 21 118 C22.65 118.66 24.3 119.32 26 120 C26.495 118.515 26.495 118.515 27 117 C27 117.66 27 118.32 27 119 C27.99 119.495 27.99 119.495 29 120 C29.14875691 123.64454423 29.13867117 126.57531953 28 130.0625 C26.5272817 134.96088913 26.78489861 139.86756435 26.875 144.9375 C26.88402344 145.90751953 26.89304688 146.87753906 26.90234375 147.87695312 C26.92573893 150.25156407 26.95851824 152.62564776 27 155 C24.47519307 152.47519307 24.44261367 150.86176966 23.875 147.375 C23.70742187 146.37210938 23.53984375 145.36921875 23.3671875 144.3359375 C23.24601562 143.56507813 23.12484375 142.79421875 23 142 C22.34 142.33 21.68 142.66 21 143 C22.53079797 154.13307611 24.17467634 165.23390935 26.0625 176.3125 C30.16055785 200.49684047 30.16055785 200.49684047 30 211 C29.34 210.01 28.68 209.02 28 208 C28 215.26 28 222.52 28 230 C27.34 230 26.68 230 26 230 C25.12295969 234.87151705 25.12295969 234.87151705 25.5625 239.75 C26 242 26 242 24 245 C23.97360171 247.29714187 23.97360171 247.29714187 24.375 249.6875 C24.48585937 250.49574219 24.59671875 251.30398438 24.7109375 252.13671875 C24.80632812 252.75160156 24.90171875 253.36648438 25 254 C17.66454325 254.25102323 11.15447136 253.65900785 4 252 C4 248.7 4 245.4 4 242 C5.32 242 6.64 242 8 242 C8.33 242.99 8.66 243.98 9 245 C9.99 243.02 9.99 243.02 11 241 C11.33 241 11.66 241 12 241 C12.06058594 240.22914063 12.12117188 239.45828125 12.18359375 238.6640625 C12.30927734 237.15972656 12.30927734 237.15972656 12.4375 235.625 C12.55931641 234.12839844 12.55931641 234.12839844 12.68359375 232.6015625 C13 230 13 230 14 228 C14.66 228 15.32 228 16 228 C15.34 223.05 14.68 218.1 14 213 C13.34 216.96 12.68 220.92 12 225 C11.67 225 11.34 225 11 225 C11.02320313 224.11699219 11.04640625 223.23398437 11.0703125 222.32421875 C11.17302978 215.4935194 10.85281018 209.23534549 9.4453125 202.5546875 C8.76712166 198.66401371 8.87081577 194.94011891 9 191 C8.01 190.67 7.02 190.34 6 190 C5.67 185.71 5.34 181.42 5 177 C3.68 177.33 2.36 177.66 1 178 C1.59861742 175.64828869 2.26924352 173.3140622 3 171 C3.66 170.67 4.32 170.34 5 170 C4.67 167.69 4.34 165.38 4 163 C2.35 162.34 0.7 161.68 -1 161 C-1.35832987 155.0278355 -0.93193423 151.35396686 2 146 C1.67 145.01 1.34 144.02 1 143 C0.90752619 141.52313889 0.87000929 140.04224499 0.875 138.5625 C0.87242187 137.80066406 0.86984375 137.03882813 0.8671875 136.25390625 C0.99723985 134.04684141 1.39143801 132.12030724 2 130 C2.66 130 3.32 130 4 130 C4 128.35 4 126.7 4 125 C4.99 124.505 4.99 124.505 6 124 C8.21901325 131.4281862 9.79514541 138.89739451 11.1796875 146.51953125 C12.09595544 151.56355217 13.0709408 156.59529177 14.0625 161.625 C14.30601196 162.88654907 14.30601196 162.88654907 14.55444336 164.17358398 C15.42633585 168.57732739 16.45960753 172.76905534 18 177 C18.1574438 172.11924208 18.06224733 167.77263238 17 163 C16.08812094 158.89973263 15.88473357 155.1715178 15.99609375 150.984375 C16.00086121 148.5625033 15.60412666 146.34099079 15 144 C15.474375 144.639375 15.94875 145.27875 16.4375 145.9375 C17.83738726 147.88293306 17.83738726 147.88293306 19 149 C17.56869615 138.28286317 16.10904124 127.64144094 13.68359375 117.09765625 C12.81464982 113.16009892 12.19930681 109.1972671 11.625 105.20703125 C11.19102384 102.94133744 11.19102384 102.94133744 9.54296875 101.65625 C7.1635608 99.10215133 6.90459002 96.01679308 6.3125 92.6875 C6.06113281 91.39199219 5.80976563 90.09648437 5.55078125 88.76171875 C5.06319798 85.43162876 4.89071752 82.3565333 5 79 C4.34 79 3.68 79 3 79 C2.87882813 78.28714844 2.75765625 77.57429688 2.6328125 76.83984375 C1.552243 70.66397347 0.26645099 64.72101579 -1.7578125 58.7734375 C-3.55405412 53.28007719 -4.38680993 48.19475852 -4.75390625 42.43359375 C-5.05212895 38.27267708 -5.51268641 34.14238598 -6 30 C-6.0832251 29.26966553 -6.1664502 28.53933105 -6.25219727 27.78686523 C-6.64465645 24.46198194 -7.06103441 21.21931059 -8 18 C-8.99 18 -9.98 18 -11 18 C-12.97094808 13.07262981 -13.1799928 9.21979128 -13 4 C-12.67 4.66 -12.34 5.32 -12 6 C-11.34 6 -10.68 6 -10 6 C-9.67 5.01 -9.34 4.02 -9 3 C-6.03848967 0.1442579 -4.06571818 -0.33880985 0 0 Z " fill="#8D9BBD" transform="translate(134,110)"/>
<path d="M0 0 C0.66 0.33 1.32 0.66 2 1 C0.625 3 0.625 3 -1 5 C-1.66 5 -2.32 5 -3 5 C-3.0984702 9.13574827 -2.77403558 12.93631321 -2 17 C-1.01 17 -0.02 17 1 17 C4.16597282 24.88506438 4.73562561 32.44813775 5.13671875 40.87109375 C5.71063915 50.2706345 7.53386461 59.98503564 11.12109375 68.734375 C12.33276642 71.85779789 12.12996949 74.685778 12 78 C12.66 78 13.32 78 14 78 C14.48109963 80.52047792 14.95992603 83.0413537 15.4375 85.5625 C15.57220703 86.26697266 15.70691406 86.97144531 15.84570312 87.69726562 C16.68138642 92.12027231 17.39625245 96.53930209 18 101 C18.99 101.33 19.98 101.66 21 102 C21.29003906 103.57587891 21.29003906 103.57587891 21.5859375 105.18359375 C21.84887497 106.60157796 22.11190056 108.01954583 22.375 109.4375 C22.50132812 110.12521484 22.62765625 110.81292969 22.7578125 111.52148438 C23.43331089 115.15228823 24.1637852 118.75720554 24.99609375 122.35546875 C26.15304658 127.49236152 26.94055883 132.66480935 27.6875 137.875 C27.90116211 139.27878906 27.90116211 139.27878906 28.11914062 140.7109375 C28.24869141 141.608125 28.37824219 142.5053125 28.51171875 143.4296875 C28.62990967 144.23647949 28.74810059 145.04327148 28.86987305 145.87451172 C29 148 29 148 28 151 C27.34 150.01 26.68 149.02 26 148 C25.84378106 152.84278728 25.92363166 157.14504335 27 161.875 C28.20588641 167.27601238 28.18855419 172.49002768 28 178 C22.87846434 172.87846434 22.30109293 163.04862143 21.0625 156.125 C20.72179612 154.29679258 20.38063767 152.46866983 20.0390625 150.640625 C19.5153414 147.80602155 18.99471833 144.97092604 18.47949219 142.13476562 C17.97602255 139.37943086 17.4579162 136.62717679 16.9375 133.875 C16.78740479 133.02824707 16.63730957 132.18149414 16.48266602 131.30908203 C16.33240967 130.52388184 16.18215332 129.73868164 16.02734375 128.9296875 C15.90093506 128.24116699 15.77452637 127.55264648 15.64428711 126.84326172 C14.86871014 124.62438862 13.66775153 123.61552728 12 122 C12.20153707 119.15124622 13.14375177 116.74900747 14 114 C13.01 114.33 12.02 114.66 11 115 C10.06576355 111.98968256 9.95550089 111.13349732 11 108 C10.34 108 9.68 108 9 108 C7.83454364 103.00518703 6.8540672 98.07743228 6.125 93 C5.12611317 86.80055949 3.54485301 80.54485301 -1 76 C-1.556875 75.608125 -2.11375 75.21625 -2.6875 74.8125 C-4 73 -4 73 -3.6875 69.6875 C-3.460625 68.470625 -3.23375 67.25375 -3 66 C-2.96364237 64.0003305 -2.95123402 61.99940538 -3 60 C-3.99 60 -4.98 60 -6 60 C-6.33 60 -6.66 60 -7 60 C-7.07485655 56.10745958 -6.93973036 52.75892143 -6 49 C-6.33 48.01 -6.66 47.02 -7 46 C-7.66 46 -8.32 46 -9 46 C-9.66 46.66 -10.32 47.32 -11 48 C-11.66 47.01 -12.32 46.02 -13 45 C-13.99 45.99 -14.98 46.98 -16 48 C-16.99 44.04 -17.98 40.08 -19 36 C-20.65 36 -22.3 36 -24 36 C-24.33 36.66 -24.66 37.32 -25 38 C-23.515 37.505 -23.515 37.505 -22 37 C-20.86653331 41.25050008 -20.99241667 45.24313687 -21.16015625 49.59765625 C-20.98619254 52.2071119 -20.31625677 53.76494439 -19 56 C-20.98 56.495 -20.98 56.495 -23 57 C-23.433125 56.0409375 -23.433125 56.0409375 -23.875 55.0625 C-24.82823451 52.84793921 -24.82823451 52.84793921 -27 52 C-27 49 -27 46 -27 43 C-28.28026247 37.18957802 -30.06022953 31.61979217 -32 26 C-33.31420182 22.05739454 -33.17983283 18.95554481 -32 15 C-24.12814976 7.60350303 -10.16907243 3.38969081 0 0 Z " fill="#9BAEDA" transform="translate(125,111)"/>
<path d="M0 0 C0.33 0 0.66 0 1 0 C2.54878357 4.97823289 3.57921268 9.91653313 4.4375 15.05859375 C5.14108308 18.73774695 6.09150423 22.36601694 7 26 C7.33 19.73 7.66 13.46 8 7 C8.99 6.67 9.98 6.34 11 6 C11.33 5.34 11.66 4.68 12 4 C12.33 5.65 12.66 7.3 13 9 C13.66 9 14.32 9 15 9 C15 7.68 15 6.36 15 5 C16.875 5.3125 16.875 5.3125 19 6 C19.99 7.485 19.99 7.485 21 9 C21.99 9.66 22.98 10.32 24 11 C23.9278125 11.62648438 23.855625 12.25296875 23.78125 12.8984375 C23.64203125 14.12433594 23.64203125 14.12433594 23.5 15.375 C23.36078125 16.59316406 23.36078125 16.59316406 23.21875 17.8359375 C22.96647649 19.96912825 22.96647649 19.96912825 23 22 C23.66 22.33 24.32 22.66 25 23 C24.125 29.75 24.125 29.75 23 32 C23.04690031 33.89695524 23.04690031 33.89695524 23.33984375 36.02734375 C23.43330078 36.81947266 23.52675781 37.61160156 23.62304688 38.42773438 C23.72681641 39.25595703 23.83058594 40.08417969 23.9375 40.9375 C24.13551528 42.57144544 24.33218494 44.20555467 24.52734375 45.83984375 C24.61749756 46.56550537 24.70765137 47.29116699 24.80053711 48.03881836 C25.19951528 51.96169677 24.54951441 54.41674792 23 58 C22.5359375 57.0409375 22.5359375 57.0409375 22.0625 56.0625 C21.1654837 54.06389179 21.1654837 54.06389179 20 53 C19.17361624 55.89234315 19 57.88742431 19 61 C19.66 61.33 20.32 61.66 21 62 C18.29352533 62.67511172 15.58522815 63.34027341 12.875 64 C12.11445313 64.19078125 11.35390625 64.3815625 10.5703125 64.578125 C6.28411166 65.6127252 2.44599099 66.2272711 -2 66 C-2.19916016 64.60974609 -2.19916016 64.60974609 -2.40234375 63.19140625 C-2.57894531 61.99386719 -2.75554687 60.79632813 -2.9375 59.5625 C-3.19853516 57.77005859 -3.19853516 57.77005859 -3.46484375 55.94140625 C-3.68985213 53.12044324 -3.68985213 53.12044324 -5 52 C-5.21230963 49.22523107 -5.37669503 46.46642867 -5.5 43.6875 C-5.56926454 42.14957075 -5.64206945 40.61179608 -5.71875 39.07421875 C-5.74904297 38.38932373 -5.77933594 37.70442871 -5.81054688 36.9987793 C-5.95109877 34.9705879 -5.95109877 34.9705879 -6.52514648 32.93383789 C-7.21321127 30.13169848 -6.84218512 27.6090035 -6.5625 24.75 C-6.46066406 23.67234375 -6.35882813 22.5946875 -6.25390625 21.484375 C-6.17011719 20.66453125 -6.08632812 19.8446875 -6 19 C-5.34 19.33 -4.68 19.66 -4 20 C-3.22443234 22.66912342 -2.54903747 25.2934235 -1.9375 28 C-1.19339835 32.88999228 -1.19339835 32.88999228 1 37 C1.99137239 30.94084289 1.84949645 25.69392989 1.0625 19.625 C0.28087073 13.03104242 -0.21806932 6.65111434 0 0 Z " fill="#5C6E8D" transform="translate(178,297)"/>
<path d="M0 0 C4.59216906 4.06734974 7.2167907 8.56385928 10 14 C8.35 13.67 6.7 13.34 5 13 C4.01 17.95 3.02 22.9 2 28 C1.34 28 0.68 28 0 28 C0.04125 29.175625 0.0825 30.35125 0.125 31.5625 C0.13222738 35.6676495 -0.78526234 39.06996639 -2 43 C-2.2475 44.85625 -2.2475 44.85625 -2.5 46.75 C-3 50 -3 50 -5 53 C-5.2462987 55.09633778 -5.40272138 57.20398583 -5.5 59.3125 C-5.71554848 63.95218106 -6.44937252 67.6315656 -8 72 C-8.66582039 74.60128211 -9.31212089 77.20173618 -9.9375 79.8125 C-11.17612193 84.88676148 -12.53186831 89.8336521 -14.2734375 94.76171875 C-15.78871002 99.42973572 -16.86165373 104.22863371 -18 109 C-18.66 109 -19.32 109 -20 109 C-20.04898438 109.56847656 -20.09796875 110.13695312 -20.1484375 110.72265625 C-20.63143081 115.71081129 -21.47638163 120.22599578 -23 125 C-23.66 125 -24.32 125 -25 125 C-24.9175 125.9075 -24.835 126.815 -24.75 127.75 C-24.74052483 132.44968482 -26.36779209 136.49857633 -27.92578125 140.8828125 C-28.9238244 143.77895225 -29.73962498 146.65911734 -30.5 149.625 C-31.69355884 154.1631468 -33.27499469 158.40483266 -35.1328125 162.7109375 C-36.04712307 165.12438792 -36.56035424 167.46082144 -37 170 C-37.66 170 -38.32 170 -39 170 C-39.103125 171.155 -39.20625 172.31 -39.3125 173.5 C-39.78106944 177.29541246 -40.80589928 180.5199367 -42.25 184.046875 C-43.15130451 186.27224793 -43.15130451 186.27224793 -43.9375 189.8125 C-45.13351312 193.40053936 -45.73318095 194.23415186 -49 196 C-55.46808511 199.17730496 -55.46808511 199.17730496 -59 198 C-58.505 197.01 -58.505 197.01 -58 196 C-58.33 195.01 -58.66 194.02 -59 193 C-56.92446352 192.4465236 -55.15634036 192 -53 192 C-52.505 190.02 -52.505 190.02 -52 188 C-51.34 188 -50.68 188 -50 188 C-49.855625 186.741875 -49.71125 185.48375 -49.5625 184.1875 C-49.26251314 181.57332877 -48.84186703 179.52560108 -48 177 C-47.34 177 -46.68 177 -46 177 C-45.81824219 176.14728516 -45.81824219 176.14728516 -45.6328125 175.27734375 C-43.1497006 163.83592814 -43.1497006 163.83592814 -41.0625 158.6875 C-39.42524509 154.54620816 -38.25145566 150.27113721 -37 146 C-35.32571051 140.32650091 -33.59773003 134.69134465 -31.6484375 129.10546875 C-30.95067702 126.97391436 -30.95067702 126.97391436 -30.5390625 124.6171875 C-29.92207714 121.62167888 -28.99431299 118.82904992 -28 115.9375 C-26.86909047 112.64039978 -25.80593549 109.39073759 -25 106 C-24.690625 104.96875 -24.38125 103.9375 -24.0625 102.875 C-23.20566769 99.93908928 -22.61110326 97.00817453 -22.0625 94 C-21.23080927 89.67910673 -19.77092904 86.03771821 -18 82 C-16.45244817 77.06396975 -15.16945527 72.18618688 -14.4375 67.0625 C-14 64 -14 64 -13.03125 62.0703125 C-11.96708809 59.93392685 -11.49748546 58.15313603 -11.0625 55.8125 C-10.815 54.49378906 -10.815 54.49378906 -10.5625 53.1484375 C-10.2840625 51.58996094 -10.2840625 51.58996094 -10 50 C-9.6596875 48.10121094 -9.6596875 48.10121094 -9.3125 46.1640625 C-8.26189259 40.25942677 -7.23371318 34.35091785 -6.2109375 28.44140625 C-4.5430316 18.83891414 -2.78589846 9.35265911 0 0 Z " fill="#1D344C" transform="translate(265,157)"/>
<path d="M0 0 C3.33537489 1.11179163 4.63707344 2.47411298 7 5 C6.34 5.33 5.68 5.66 5 6 C4.57367106 8.454352 4.24984913 10.83945629 4 13.3125 C3.55868966 17.60710341 3.00137092 21.14129622 1 25 C0.4359706 27.50429055 -0.06115157 29.9745346 -0.5 32.5 C-0.62890625 33.20761475 -0.7578125 33.91522949 -0.890625 34.64428711 C-1.66604558 38.94060178 -2.34516905 43.24607264 -3 47.5625 C-3.53326702 50.87861425 -4.16365466 53.75801645 -5.5625 56.8125 C-7.11234244 60.24910715 -7.55333891 63.27782424 -8 67 C-8.33 67.33 -8.66 67.66 -9 68 C-9.5160854 70.19999833 -9.98761025 72.41051676 -10.4375 74.625 C-11.45031363 79.49047726 -12.53098497 84.25395146 -14 89 C-14.66 89 -15.32 89 -16 89 C-16 91.97 -16 94.94 -16 98 C-16.66 98 -17.32 98 -18 98 C-17.91105469 99.25876953 -17.91105469 99.25876953 -17.8203125 100.54296875 C-18.0295845 104.5691801 -19.27227587 107.68213269 -20.875 111.3125 C-22.83417887 115.97195559 -24.51337159 120.43121885 -25.44140625 125.40625 C-26.27616906 129.28235142 -27.39165983 133.06942098 -28.5 136.875 C-28.71406494 137.62571777 -28.92812988 138.37643555 -29.14868164 139.14990234 C-30.12840293 142.48723159 -31.05673421 145.08510132 -33 148 C-33.53130913 149.67181565 -34.00456362 151.36255205 -34.4375 153.0625 C-34.69273437 154.031875 -34.94796875 155.00125 -35.2109375 156 C-35.47132813 156.99 -35.73171875 157.98 -36 159 C-36.50973401 160.85724867 -37.02985467 162.71169198 -37.5625 164.5625 C-37.79066406 165.36816406 -38.01882812 166.17382812 -38.25390625 167.00390625 C-39 169 -39 169 -41 171 C-41.64767793 173.57061311 -41.64767793 173.57061311 -42 176 C-41.34 176.33 -40.68 176.66 -40 177 C-41.26691507 177.67408308 -42.53870749 178.33900497 -43.8125 179 C-44.52019531 179.37125 -45.22789062 179.7425 -45.95703125 180.125 C-48 181 -48 181 -51 181 C-49.88176388 176.80661453 -48.57150417 172.75776413 -47.0625 168.6875 C-45.74555629 165.13029411 -44.54880177 161.58251599 -43.5 157.9375 C-42.51586823 154.54652422 -41.35721952 151.32188325 -40 148.0625 C-38.21671577 143.73263185 -36.95687077 139.39725695 -35.7890625 134.8671875 C-34.93896892 131.77823361 -33.92418174 128.77677609 -32.875 125.75 C-31.41093791 121.45839814 -30.41003757 117.51041331 -30 113 C-29.34 113 -28.68 113 -28 113 C-27.87625 112.030625 -27.7525 111.06125 -27.625 110.0625 C-27.00136191 105.65184223 -26.01253494 101.33522241 -25 97 C-24.34 97 -23.68 97 -23 97 C-23.061875 96.195625 -23.12375 95.39125 -23.1875 94.5625 C-22.98435659 90.70277522 -22.02773497 87.79695219 -20.734375 84.19140625 C-19.83093225 81.49549463 -19.36104451 78.81614714 -19 76 C-18.34 76 -17.68 76 -17 76 C-16.896875 74.7625 -16.79375 73.525 -16.6875 72.25 C-15.96694002 65.66053118 -14.19895961 59.31953941 -12.4296875 52.9453125 C-11.93062891 50.68593814 -11.77765913 48.49556072 -11.625 46.1875 C-11.21092853 41.61267807 -9.81179758 38.22752768 -8 34 C-7.47611558 30.67553721 -7.1959724 27.35856147 -7 24 C-6.34 24 -5.68 24 -5 24 C-5.495 22.515 -5.495 22.515 -6 21 C-5.47721506 18.32542067 -4.88587149 15.75277069 -4.1875 13.125 C-4.00896484 12.41730469 -3.83042969 11.70960938 -3.64648438 10.98046875 C-2.67047294 7.19622226 -1.55800038 3.59538548 0 0 Z " fill="#05203A" transform="translate(270,169)"/>
<path d="M0 0 C-0.99 0.495 -0.99 0.495 -2 1 C-2.65213292 3.02463255 -2.65213292 3.02463255 -3 5 C-2.34 5 -1.68 5 -1 5 C-0.855625 5.94875 -0.71125 6.8975 -0.5625 7.875 C-0.17064601 10.8934494 -0.17064601 10.8934494 1 13 C1.34022786 14.99883869 1.67329097 16.99890722 2 19 C2.75150023 22.27773504 2.75150023 22.27773504 6 24 C6.6875 26.625 6.6875 26.625 7 29 C7.66 29 8.32 29 9 29 C9 30.98 9 32.96 9 35 C7.515 35.495 7.515 35.495 6 36 C7.11854586 39.72614153 7.11854586 39.72614153 10 42 C10.33 42.99 10.66 43.98 11 45 C11.32484375 45.62132812 11.6496875 46.24265625 11.984375 46.8828125 C13.0987654 49.20588787 13.70133615 51.35898434 14.25 53.875 C14.44078125 54.69742188 14.6315625 55.51984375 14.828125 56.3671875 C15 59 15 59 13.9609375 61.7578125 C12.65087993 66.17792545 13.4651303 69.55337872 14.375 74 C15.36313419 79.07465523 16.21680421 83.79669906 16 89 C15.67 88.01 15.34 87.02 15 86 C14.01 86.99 14.01 86.99 13 88 C13 88.66 13 89.32 13 90 C12.34 90 11.68 90 11 90 C10.34 88.35 9.68 86.7 9 85 C9.495 93.415 9.495 93.415 10 102 C7.28657384 99.28657384 7.05959995 96.38955687 6.375 92.75 C6.2409375 92.09386719 6.106875 91.43773437 5.96875 90.76171875 C5.1944287 86.78739614 4.86183406 83.04449391 5 79 C4.34 79 3.68 79 3 79 C2.87882813 78.28714844 2.75765625 77.57429688 2.6328125 76.83984375 C1.552243 70.66397347 0.26645099 64.72101579 -1.7578125 58.7734375 C-3.55405412 53.28007719 -4.38680993 48.19475852 -4.75390625 42.43359375 C-5.05212895 38.27267708 -5.51268641 34.14238598 -6 30 C-6.0832251 29.26966553 -6.1664502 28.53933105 -6.25219727 27.78686523 C-6.64465645 24.46198194 -7.06103441 21.21931059 -8 18 C-8.99 18 -9.98 18 -11 18 C-12.97094808 13.07262981 -13.1799928 9.21979128 -13 4 C-12.67 4.66 -12.34 5.32 -12 6 C-11.34 6 -10.68 6 -10 6 C-9.67 5.01 -9.34 4.02 -9 3 C-6.03848967 0.1442579 -4.06571818 -0.33880985 0 0 Z " fill="#8CA1D0" transform="translate(134,110)"/>
<path d="M0 0 C2.30139426 3.75152931 2.72010988 7.74087447 3.2890625 12.01953125 C3.39721283 12.79632736 3.50536316 13.57312347 3.61679077 14.37345886 C3.84363406 16.01453758 4.06699676 17.65610068 4.28710938 19.2980957 C4.62257425 21.79444888 4.97055168 24.28881731 5.3203125 26.78320312 C5.53981274 28.38270972 5.75858626 29.98231625 5.9765625 31.58203125 C6.07965729 32.32081009 6.18275208 33.05958893 6.28897095 33.820755 C6.876307 38.25678755 7.09625091 42.52506742 7 47 C6.34 46.01 5.68 45.02 5 44 C5 51.26 5 58.52 5 66 C4.34 66 3.68 66 3 66 C2.12295969 70.87151705 2.12295969 70.87151705 2.5625 75.75 C3 78 3 78 1 81 C0.97360171 83.29714187 0.97360171 83.29714187 1.375 85.6875 C1.48585937 86.49574219 1.59671875 87.30398438 1.7109375 88.13671875 C1.80632812 88.75160156 1.90171875 89.36648438 2 90 C-5.33545675 90.25102323 -11.84552864 89.65900785 -19 88 C-19 84.7 -19 81.4 -19 78 C-17.68 78 -16.36 78 -15 78 C-14.67 78.99 -14.34 79.98 -14 81 C-13.34 79.68 -12.68 78.36 -12 77 C-11.67 77 -11.34 77 -11 77 C-10.93941406 76.22914063 -10.87882813 75.45828125 -10.81640625 74.6640625 C-10.73261719 73.66117187 -10.64882812 72.65828125 -10.5625 71.625 C-10.48128906 70.62726563 -10.40007812 69.62953125 -10.31640625 68.6015625 C-10 66 -10 66 -9 64 C-8.34 64 -7.68 64 -7 64 C-7.66 59.05 -8.32 54.1 -9 49 C-9.66 52.96 -10.32 56.92 -11 61 C-11.33 61 -11.66 61 -12 61 C-12.28862974 33.93294461 -12.28862974 33.93294461 -9 29 C-8.75892674 26.71351152 -8.75892674 26.71351152 -8.875 24.3125 C-8.90207031 23.10013672 -8.90207031 23.10013672 -8.9296875 21.86328125 C-8.95289063 21.24839844 -8.97609375 20.63351562 -9 20 C-8.34 20 -7.68 20 -7 20 C-6.67 19.34 -6.34 18.68 -6 18 C-4.68 19.32 -3.36 20.64 -2 22 C-0.66217952 14.73754596 0.19451037 7.39139409 0 0 Z " fill="#8593B1" transform="translate(157,274)"/>
<path d="M0 0 C-1.375 2 -1.375 2 -3 4 C-3.66 4 -4.32 4 -5 4 C-5.0984702 8.13574827 -4.77403558 11.93631321 -4 16 C-3.01 16 -2.02 16 -1 16 C2.16597282 23.88506438 2.73562561 31.44813775 3.13671875 39.87109375 C3.71063915 49.2706345 5.53386461 58.98503564 9.12109375 67.734375 C10.33276642 70.85779789 10.12996949 73.685778 10 77 C10.66 77 11.32 77 12 77 C12.17015625 77.969375 12.3403125 78.93875 12.515625 79.9375 C13.79958105 87.08479531 15.24135791 94.11050315 17.125 101.125 C19.4710787 110.00019828 20.06804058 118.83153229 20 128 C19.34 128 18.68 128 18 128 C15.71428571 119.57142857 15.71428571 119.57142857 16 115 C15.01 114.67 14.02 114.34 13 114 C12.87625 113.01 12.7525 112.02 12.625 111 C11.91055602 106.03858347 10.66288699 101.23341923 9.23828125 96.43359375 C7.58937256 90.77904347 6.60259412 85.49438516 6.30859375 79.60546875 C5.53019937 73.03345541 2.42224168 66.70114017 0.12109375 60.53515625 C-1.00023446 56.99926067 -1.52250184 53.6707671 -2 50 C-2.42814458 48.36081791 -2.90092114 46.73195638 -3.4375 45.125 C-3.68371094 44.36445313 -3.92992188 43.60390625 -4.18359375 42.8203125 C-4.85511076 40.80865515 -4.85511076 40.80865515 -7 40 C-8.03568517 35.65012229 -8.08910759 31.45537928 -8 27 C-8.66 27 -9.32 27 -10 27 C-10.33 27.66 -10.66 28.32 -11 29 C-11.23074219 28.26136719 -11.46148437 27.52273437 -11.69921875 26.76171875 C-14.00522631 19.58848574 -16.73839465 12.7905554 -20 6 C-17.04657157 4.80003066 -14.08658106 3.61718896 -11.125 2.4375 C-10.28324219 2.09525391 -9.44148438 1.75300781 -8.57421875 1.40039062 C-7.76855469 1.08134766 -6.96289062 0.76230469 -6.1328125 0.43359375 C-5.38918457 0.13509521 -4.64555664 -0.16340332 -3.87939453 -0.47094727 C-2 -1 -2 -1 0 0 Z " fill="#ADBEE5" transform="translate(127,112)"/>
<path d="M0 0 C2.12525221 1.71656354 2.92910627 2.65843069 3.49243164 5.37255859 C3.54778076 6.28859863 3.60312988 7.20463867 3.66015625 8.1484375 C3.73169922 9.15390625 3.80324219 10.159375 3.87695312 11.1953125 C3.96879883 12.76925781 3.96879883 12.76925781 4.0625 14.375 C4.19192383 16.44578133 4.32840539 18.51613617 4.47265625 20.5859375 C4.52687744 21.5042334 4.58109863 22.4225293 4.63696289 23.36865234 C4.89323735 26.02203343 4.89323735 26.02203343 5.98413086 28.42626953 C7.20654873 31.52329649 7.48531298 34.27888317 7.78125 37.59375 C7.96107422 39.511875 7.96107422 39.511875 8.14453125 41.46875 C8.26357274 42.81245122 8.38206025 44.15620163 8.5 45.5 C9.36339095 55.06371513 10.4143936 64.52660543 12 74 C12.66 74 13.32 74 14 74 C14.48225331 76.1868216 14.96065583 78.37449255 15.4375 80.5625 C15.70433594 81.78066406 15.97117188 82.99882812 16.24609375 84.25390625 C16.96707359 87.83639157 17.52007501 91.37959502 18 95 C15.02077407 95.02683987 12.04178705 95.04676037 9.0625 95.0625 C8.21236328 95.07087891 7.36222656 95.07925781 6.48632812 95.08789062 C5.67744141 95.09111328 4.86855469 95.09433594 4.03515625 95.09765625 C3.2862915 95.10289307 2.53742676 95.10812988 1.76586914 95.11352539 C0 95 0 95 -1 94 C-1.28469564 92.53051037 -1.5044763 91.04808195 -1.6875 89.5625 C-1.79449219 88.75941406 -1.90148437 87.95632813 -2.01171875 87.12890625 C-2 85 -2 85 0 83 C0 81.68 0 80.36 0 79 C-0.66 78.34 -1.32 77.68 -2 77 C-1.34 77 -0.68 77 0 77 C0 74.36 0 71.72 0 69 C0.33 69.66 0.66 70.32 1 71 C1.66 71 2.32 71 3 71 C2.67 63.41 2.34 55.82 2 48 C2.66 48.33 3.32 48.66 4 49 C3.69083423 45.79133632 3.37706711 42.58313829 3.0625 39.375 C2.97548828 38.47136719 2.88847656 37.56773437 2.79882812 36.63671875 C2.27940248 31.34551712 2.27940248 31.34551712 1.46875 26.09375 C0.71673498 21.13045084 0.62575923 16.13701628 0.4375 11.125 C0.39431641 10.05507813 0.35113281 8.98515625 0.30664062 7.8828125 C0.20107183 5.25532246 0.09896209 2.62774578 0 0 Z " fill="#5E7194" transform="translate(159,269)"/>
<path d="M0 0 C0.66 0 1.32 0 2 0 C4.11670277 7.00242552 5.54034292 13.69303751 6 21 C6.33 19.35 6.66 17.7 7 16 C7.66 16 8.32 16 9 16 C9.33 12.37 9.66 8.74 10 5 C10.66 5 11.32 5 12 5 C12.1953125 7.05078125 12.390625 9.1015625 12.5859375 11.15234375 C12.72257812 11.76207031 12.85921875 12.37179687 13 13 C13.66 13.33 14.32 13.66 15 14 C14.125 20.75 14.125 20.75 13 23 C13.04690031 24.89695524 13.04690031 24.89695524 13.33984375 27.02734375 C13.43330078 27.81947266 13.52675781 28.61160156 13.62304688 29.42773438 C13.72681641 30.25595703 13.83058594 31.08417969 13.9375 31.9375 C14.13551528 33.57144544 14.33218494 35.20555467 14.52734375 36.83984375 C14.61749756 37.56550537 14.70765137 38.29116699 14.80053711 39.03881836 C15.19951528 42.96169677 14.54951441 45.41674792 13 49 C12.5359375 48.0409375 12.5359375 48.0409375 12.0625 47.0625 C11.1654837 45.06389179 11.1654837 45.06389179 10 44 C9.17361624 46.89234315 9 48.88742431 9 52 C9.66 52.33 10.32 52.66 11 53 C9.29456816 53.50980881 7.58547682 54.00738268 5.875 54.5 C4.92367187 54.7784375 3.97234375 55.056875 2.9921875 55.34375 C-0.09785121 56.02146084 -2.84702648 56.11227205 -6 56 C-6.02722517 53.79173622 -6.04649729 51.58337362 -6.0625 49.375 C-6.07410156 48.14523437 -6.08570313 46.91546875 -6.09765625 45.6484375 C-6.00769694 42.28755753 -5.79722819 39.26483925 -5 36 C-2.4375 33.625 -2.4375 33.625 0 32 C0.33 33.65 0.66 35.3 1 37 C1 30.07 1 23.14 1 16 C0.34 16 -0.32 16 -1 16 C-1.09688221 10.55306686 -1.12862175 5.36095333 0 0 Z " fill="#51627F" transform="translate(188,306)"/>
<path d="M0 0 C2.9924731 5.43305567 3.56249531 10.75001875 2.0625 16.75 C1.711875 17.8225 1.36125 18.895 1 20 C0.49758678 22.6704053 0.49758678 22.6704053 1 25 C1.66 25.45375 2.32 25.9075 3 26.375 C3.66 26.91125 4.32 27.4475 5 28 C5.25 31.6875 5.25 31.6875 5 35 C4.34 35 3.68 35 3 35 C3 36.65 3 38.3 3 40 C4.65 40.66 6.3 41.32 8 42 C8.33 41.01 8.66 40.02 9 39 C9 39.66 9 40.32 9 41 C9.66 41.33 10.32 41.66 11 42 C11.14875691 45.64454423 11.13867117 48.57531953 10 52.0625 C8.5272817 56.96088913 8.78489861 61.86756435 8.875 66.9375 C8.88402344 67.90751953 8.89304688 68.87753906 8.90234375 69.87695312 C8.92573893 72.25156407 8.95851824 74.62564776 9 77 C6.47519307 74.47519307 6.44261367 72.86176966 5.875 69.375 C5.70742187 68.37210937 5.53984375 67.36921875 5.3671875 66.3359375 C5.24601563 65.56507813 5.12484375 64.79421875 5 64 C4.01 64.495 4.01 64.495 3 65 C3.33 68.96 3.66 72.92 4 77 C3.67 77 3.34 77 3 77 C0.98062455 71.73055677 0.27324171 66.55707117 -0.4375 61 C-1.43538616 53.60194468 -2.65054926 46.36953424 -4.3125 39.08984375 C-5.17455282 35.21550408 -5.83887213 31.31973325 -6.47265625 27.40234375 C-6.92566491 24.96271273 -6.92566491 24.96271273 -8.01953125 22.6796875 C-9.2880138 19.21283877 -9.45733882 15.83762358 -9.625 12.1875 C-9.66367188 11.49462891 -9.70234375 10.80175781 -9.7421875 10.08789062 C-9.83573568 8.39232985 -9.91892364 6.69620288 -10 5 C-7.64046906 7.35953094 -7.50858587 8.77895617 -7 12 C-6.34 12 -5.68 12 -5 12 C-5.33 11.01 -5.66 10.02 -6 9 C-5.01 8.67 -4.02 8.34 -3 8 C-3 5.69 -3 3.38 -3 1 C-2.67 1.99 -2.34 2.98 -2 4 C-1.34 4 -0.68 4 0 4 C0 2.68 0 1.36 0 0 Z " fill="#7D92C0" transform="translate(152,188)"/>
<path d="M0 0 C0.28875 1.134375 0.5775 2.26875 0.875 3.4375 C1.24625 4.613125 1.6175 5.78875 2 7 C2.66 7.33 3.32 7.66 4 8 C8.31938321 15.80392766 12.8124537 25.99777743 13 35 C11.5625 36.9375 11.5625 36.9375 10 38 C9.34 37.01 8.68 36.02 8 35 C7.01 35.99 6.02 36.98 5 38 C4.01 34.04 3.02 30.08 2 26 C0.35 26 -1.3 26 -3 26 C-3.33 26.66 -3.66 27.32 -4 28 C-3.01 27.67 -2.02 27.34 -1 27 C0.13346669 31.25050008 0.00758333 35.24313687 -0.16015625 39.59765625 C0.01380746 42.2071119 0.68374323 43.76494439 2 46 C0.02 46.495 0.02 46.495 -2 47 C-2.433125 46.0409375 -2.433125 46.0409375 -2.875 45.0625 C-3.82823451 42.84793921 -3.82823451 42.84793921 -6 42 C-6 39 -6 36 -6 33 C-7.28026247 27.18957802 -9.06022953 21.61979217 -11 16 C-12.30851287 12.07446139 -12.22804592 8.93098117 -11 5 C-9.00390625 3.41796875 -9.00390625 3.41796875 -6.5625 2.1875 C-5.75941406 1.76855469 -4.95632812 1.34960938 -4.12890625 0.91796875 C-2 0 -2 0 0 0 Z " fill="#8EA9E5" transform="translate(104,121)"/>
<path d="M0 0 C1.9375 0.3125 1.9375 0.3125 4 1 C4.495 2.485 4.495 2.485 5 4 C4.34 4 3.68 4 3 4 C2.81824219 5.55460938 2.81824219 5.55460938 2.6328125 7.140625 C2.46392819 8.51046438 2.29463589 9.88025349 2.125 11.25 C2.04636719 11.93191406 1.96773438 12.61382812 1.88671875 13.31640625 C1.42317831 16.98907282 0.68011786 19.74236689 -1 23 C-1.5640294 25.50429055 -2.06115157 27.9745346 -2.5 30.5 C-2.62890625 31.20761475 -2.7578125 31.91522949 -2.890625 32.64428711 C-3.66604558 36.94060178 -4.34516905 41.24607264 -5 45.5625 C-5.53326702 48.87861425 -6.16365466 51.75801645 -7.5625 54.8125 C-9.11234244 58.24910715 -9.55333891 61.27782424 -10 65 C-10.33 65.33 -10.66 65.66 -11 66 C-11.5160854 68.19999833 -11.98761025 70.41051676 -12.4375 72.625 C-13.45031363 77.49047726 -14.53098497 82.25395146 -16 87 C-16.66 87 -17.32 87 -18 87 C-18 89.97 -18 92.94 -18 96 C-18.66 96 -19.32 96 -20 96 C-19.94070312 96.83917969 -19.88140625 97.67835938 -19.8203125 98.54296875 C-20.0295845 102.5691801 -21.27227587 105.68213269 -22.875 109.3125 C-24.83417887 113.97195559 -26.51337159 118.43121885 -27.44140625 123.40625 C-28.27616906 127.28235142 -29.39165983 131.06942098 -30.5 134.875 C-30.71406494 135.62571777 -30.92812988 136.37643555 -31.14868164 137.14990234 C-32.12840293 140.48723159 -33.05673421 143.08510132 -35 146 C-35.53130913 147.67181565 -36.00456362 149.36255205 -36.4375 151.0625 C-36.6953125 152.03316406 -36.953125 153.00382813 -37.21875 154.00390625 C-37.72554366 155.94745993 -38.22593733 157.89269804 -38.71875 159.83984375 C-38.9559375 160.71769531 -39.193125 161.59554687 -39.4375 162.5 C-39.74494141 163.69109375 -39.74494141 163.69109375 -40.05859375 164.90625 C-41.21962358 167.48845743 -42.64563873 168.49166177 -45 170 C-44.04402516 157.04402516 -44.04402516 157.04402516 -40 153 C-39.48621656 151.34008428 -38.98057327 149.67675243 -38.53564453 147.99707031 C-37.99324462 145.97481357 -37.38247577 143.9867313 -36.74609375 141.9921875 C-36.53146484 141.31542969 -36.31683594 140.63867188 -36.09570312 139.94140625 C-35.65428178 138.55557899 -35.21155788 137.17016599 -34.76757812 135.78515625 C-33.89159052 133.01692956 -33.05543079 130.30463645 -32.53515625 127.4453125 C-32 125 -32 125 -30.5625 121.6796875 C-28.93463791 117.84607229 -27.929819 114.16606154 -27 110.125 C-25.17852072 102.53433874 -23.0239628 95.21098822 -20 88 C-20.66 87.67 -21.32 87.34 -22 87 C-21.525625 86.29875 -21.05125 85.5975 -20.5625 84.875 C-18.88720501 81.79245723 -18.43237368 79.45898944 -18 76 C-17.67364302 74.33195323 -17.34274406 72.66475686 -17 71 C-16.34 71 -15.68 71 -15 71 C-14.9175 69.845 -14.835 68.69 -14.75 67.5 C-14.09186485 61.47186355 -12.49945301 55.6791551 -10.984375 49.82421875 C-9.68564328 44.77874911 -8.51274238 39.71841864 -7.546875 34.59765625 C-6.97648167 31.88828793 -6.22456107 29.27895472 -5.4375 26.625 C-4.49292528 23.25345578 -4 20.78536688 -4 17.25 C-4 13.22228894 -2.63152065 10.65460625 -1 7 C-0.5945897 4.67810464 -0.23927006 2.34484656 0 0 Z " fill="#000D2B" transform="translate(272,171)"/>
<path d="M0 0 C0.99 0.33 1.98 0.66 3 1 C3.495 2.485 3.495 2.485 4 4 C3.34 4 2.68 4 2 4 C1.81824219 5.22976562 1.81824219 5.22976562 1.6328125 6.484375 C1.46523438 7.56203125 1.29765625 8.6396875 1.125 9.75 C0.96257812 10.81734375 0.80015625 11.8846875 0.6328125 12.984375 C0 16 0 16 -0.99731445 17.93676758 C-2.03099791 20.06378459 -2.39074846 21.69172723 -2.67578125 24.02734375 C-2.77906738 24.80956299 -2.88235352 25.59178223 -2.98876953 26.39770508 C-3.09560059 27.2358374 -3.20243164 28.07396973 -3.3125 28.9375 C-4.47561198 37.41193699 -6.19250745 45.64016795 -8.28637695 53.93139648 C-9.21343546 57.61547148 -10.07736066 61.20439908 -10.5234375 64.98046875 C-11 68 -11 68 -13 70 C-13.61056087 72.02213278 -14.14363995 74.06827978 -14.625 76.125 C-14.88539063 77.22070312 -15.14578125 78.31640625 -15.4140625 79.4453125 C-15.70410156 80.70988281 -15.70410156 80.70988281 -16 82 C-16.66 82 -17.32 82 -18 82 C-18.02126953 83.0209375 -18.02126953 83.0209375 -18.04296875 84.0625 C-18.43158026 91.96076627 -20.25145015 98.80591204 -22.74609375 106.23828125 C-23.60325436 108.80976309 -24.35422202 111.30539118 -25.03515625 113.91796875 C-25.35355469 114.93503906 -25.67195313 115.95210938 -26 117 C-26.99 117.495 -26.99 117.495 -28 118 C-28.79841965 120.29875813 -28.79841965 120.29875813 -29.40234375 123.1015625 C-29.65306641 124.14957031 -29.90378906 125.19757813 -30.16210938 126.27734375 C-30.41798828 127.38207031 -30.67386719 128.48679687 -30.9375 129.625 C-32.51462294 136.3933179 -34.15220542 142.66403375 -37 149 C-37.98050903 151.95546154 -38.83791481 154.94213468 -39.6875 157.9375 C-39.91244141 158.71673828 -40.13738281 159.49597656 -40.36914062 160.29882812 C-40.91677367 162.19806614 -41.45895949 164.09887345 -42 166 C-42.66 166 -43.32 166 -44 166 C-44 166.66 -44 167.32 -44 168 C-43.34 168.33 -42.68 168.66 -42 169 C-43.65 169.33 -45.3 169.66 -47 170 C-47.125 167.625 -47.125 167.625 -47 165 C-46.01 164.01 -46.01 164.01 -45 163 C-44.09635561 160.44257053 -43.27262284 157.90898101 -42.5 155.3125 C-42.28730469 154.61705078 -42.07460937 153.92160156 -41.85546875 153.20507812 C-40.84081048 149.87164558 -39.86888809 146.53153809 -38.9296875 143.17578125 C-38.10532332 140.35978092 -37.04027662 137.8130614 -35.85546875 135.13671875 C-33.25120298 128.63200014 -31.24302431 121.84245351 -30.0625 114.9375 C-29.15946157 109.90511314 -27.2331319 105.49708488 -25.12109375 100.859375 C-23.95904526 97.89554401 -23.41451468 95.1484486 -23 92 C-22.34 92 -21.68 92 -21 92 C-21 89.03 -21 86.06 -21 83 C-20.34 83 -19.68 83 -19 83 C-17.72201773 76.73244865 -16.53511216 70.45896669 -15.46484375 64.15234375 C-15 62 -15 62 -14 61 C-13.46349901 58.52488197 -13.03607886 56.03718816 -12.59765625 53.54296875 C-12 51 -12 51 -10.9921875 49.00390625 C-9.78989903 46.57566222 -9.45551603 44.429995 -9.0625 41.75 C-8.26557043 36.65467076 -7.42196269 31.57398197 -6.5 26.5 C-6.38148682 25.81776367 -6.26297363 25.13552734 -6.14086914 24.43261719 C-5.50110726 20.93890056 -4.57546013 18.15092027 -3 15 C-2.61982025 12.31873005 -2.61982025 12.31873005 -2.5 9.5 C-2.29654761 5.79716649 -1.88299675 3.21931703 0 0 Z " fill="#010317" transform="translate(275,175)"/>
<path d="M0 0 C2.4375 1.125 2.4375 1.125 5 3 C5.8125 6.1875 5.8125 6.1875 6 9 C7.20561184 8.01732141 7.20561184 8.01732141 7.09765625 6.15234375 C7.08605469 5.42144531 7.07445312 4.69054687 7.0625 3.9375 C7.041875 2.638125 7.02125 1.33875 7 0 C7.33 0 7.66 0 8 0 C8.66 2.97 9.32 5.94 10 9 C10.66 8.01 11.32 7.02 12 6 C17.46209885 34.37543177 17.46209885 34.37543177 15 44 C14.01 44.495 14.01 44.495 13 45 C12.34838988 43.12699975 11.70397805 41.2514945 11.0625 39.375 C10.70285156 38.33085937 10.34320313 37.28671875 9.97265625 36.2109375 C9.04249877 33.14029714 8.45253692 30.172522 8 27 C7.80609271 29.31197155 7.62003633 31.6246029 7.4375 33.9375 C7.33308594 35.22527344 7.22867188 36.51304687 7.12109375 37.83984375 C7.08113281 38.88269531 7.04117188 39.92554688 7 41 C7.33 41.33 7.66 41.66 8 42 C8.07226502 43.85287502 8.0838122 45.70833878 8.0625 47.5625 C8.05347656 48.57441406 8.04445312 49.58632813 8.03515625 50.62890625 C8.02355469 51.41136719 8.01195312 52.19382812 8 53 C7.34 53 6.68 53 6 53 C4.02503162 45.54778597 2.61008826 38.14764786 1.6875 30.5 C1.58711426 29.73510254 1.48672852 28.97020508 1.38330078 28.18212891 C0.88842548 23.74001058 1.27586109 21.04941437 3 17 C3.02827376 13.63749391 3.02827376 13.63749391 2.625 10.1875 C2.51414063 9.02605469 2.40328125 7.86460937 2.2890625 6.66796875 C2.19367188 5.78753906 2.09828125 4.90710938 2 4 C1.01 3.67 0.02 3.34 -1 3 C-0.67 2.01 -0.34 1.02 0 0 Z " fill="#6E7FA2" transform="translate(165,290)"/>
<path d="M0 0 C0.66 0.33 1.32 0.66 2 1 C2.59773582 3.51049042 3.08256416 5.95868731 3.5 8.5 C3.73792256 9.88570284 3.97751936 11.27111922 4.21875 12.65625 C4.34209717 13.36894043 4.46544434 14.08163086 4.5925293 14.81591797 C5.00196498 17.01053247 5.4843936 19.17683857 5.98828125 21.3515625 C7.15234731 26.48943272 7.94020824 31.66236385 8.6875 36.875 C8.82994141 37.81085938 8.97238281 38.74671875 9.11914062 39.7109375 C9.3134668 41.05671875 9.3134668 41.05671875 9.51171875 42.4296875 C9.62990967 43.23647949 9.74810059 44.04327148 9.86987305 44.87451172 C10 47 10 47 9 50 C8.34 49.01 7.68 48.02 7 47 C6.84378106 51.84278728 6.92363166 56.14504335 8 60.875 C9.20588641 66.27601238 9.18855419 71.49002768 9 77 C3.88016772 71.88016772 3.29752851 62.04753745 2.0625 55.125 C1.05015551 49.56934133 0.02513562 44.02546717 -1.1796875 38.5078125 C-1.36926025 37.62464355 -1.55883301 36.74147461 -1.75415039 35.83154297 C-2.11479359 34.16410039 -2.4856674 32.49882277 -2.86889648 30.83642578 C-4.06047062 25.24279432 -3.87338425 20.65727603 -3 15 C-2.34 15 -1.68 15 -1 15 C-0.34 19.29 0.32 23.58 1 28 C1.66 28 2.32 28 3 28 C2.8453125 27.31421875 2.690625 26.6284375 2.53125 25.921875 C1.94329457 22.68812012 1.70409976 19.53017478 1.5 16.25 C1.13911079 10.80801992 0.65341571 5.41401585 0 0 Z " fill="#9FABCE" transform="translate(144,212)"/>
<path d="M0 0 C0.10957031 0.80824219 0.21914062 1.61648437 0.33203125 2.44921875 C0.49058594 3.51785156 0.64914063 4.58648437 0.8125 5.6875 C0.96332031 6.74324219 1.11414063 7.79898438 1.26953125 8.88671875 C1.81432802 11.99380881 1.81432802 11.99380881 3.4765625 14.28515625 C5.70521365 18.25672689 6.00295636 22.27365085 6.5625 26.75 C7.64914762 38.4178789 7.64914762 38.4178789 12 49 C12.0396713 50.66619446 12.04384447 52.33391013 12 54 C12.495 54.495 12.495 54.495 13 55 C13.04080783 56.99958364 13.04254356 59.00045254 13 61 C12.01 61 11.02 61 10 61 C8.85351213 57.86626648 8.00048754 55.00369138 7.5625 51.6875 C6.89225408 47.29366563 5.82412548 43.06718888 4 39 C3.34 38.67 2.68 38.34 2 38 C0.96431483 33.65012229 0.91089241 29.45537928 1 25 C0.34 25 -0.32 25 -1 25 C-1.33 25.66 -1.66 26.32 -2 27 C-2.23074219 26.26136719 -2.46148437 25.52273437 -2.69921875 24.76171875 C-5.00522631 17.58848574 -7.73839465 10.7905554 -11 4 C-9.35500958 3.33125616 -7.70898352 2.66505926 -6.0625 2 C-5.14597656 1.62875 -4.22945313 1.2575 -3.28515625 0.875 C-1 0 -1 0 0 0 Z " fill="#BDCFF5" transform="translate(118,114)"/>
<path d="M0 0 C0.66 0.33 1.32 0.66 2 1 C2.4140625 3.50390625 2.4140625 3.50390625 2.625 6.5625 C2.69976562 7.57441406 2.77453125 8.58632813 2.8515625 9.62890625 C2.90054688 10.41136719 2.94953125 11.19382812 3 12 C3.33 12 3.66 12 4 12 C4.77040851 18.06696699 5.09706112 23.88514973 5 30 C5.66 30.33 6.32 30.66 7 31 C7 28.03 7 25.06 7 22 C7.33 22 7.66 22 8 22 C8 27.94 8 33.88 8 40 C7.34 40 6.68 40 6 40 C5.12295969 44.87151705 5.12295969 44.87151705 5.5625 49.75 C6 52 6 52 4 55 C3.97360171 57.29714187 3.97360171 57.29714187 4.375 59.6875 C4.48585937 60.49574219 4.59671875 61.30398438 4.7109375 62.13671875 C4.80632812 62.75160156 4.90171875 63.36648438 5 64 C4.34 64 3.68 64 3 64 C0.875 57.25 0.875 57.25 2 55 C1.34 55 0.68 55 0 55 C-1.68953614 51.62092772 -1.38968468 47.78601357 -1.5625 44.0625 C-1.6049585 43.20744873 -1.64741699 42.35239746 -1.69116211 41.47143555 C-1.9807628 35.31173956 -2.12471942 29.16668242 -2 23 C-1.34 23 -0.68 23 0 23 C0.33 24.32 0.66 25.64 1 27 C1.23818198 20.33090465 0.58415732 13.99557225 -0.37646484 7.41015625 C-1.10323084 2.20646168 -1.10323084 2.20646168 0 0 Z " fill="#7B89A4" transform="translate(154,300)"/>
<path d="M0 0 C2.89359278 4.34038917 3.48760921 8.94131516 4.5625 14 C4.78357422 14.99128906 5.00464844 15.98257813 5.23242188 17.00390625 C6.66762842 23.65528643 7.54483848 30.21182968 8 37 C8.66 37 9.32 37 10 37 C10.33 32.05 10.66 27.1 11 22 C12.32 22.66 13.64 23.32 15 24 C15.33 23.01 15.66 22.02 16 21 C16 21.66 16 22.32 16 23 C16.66 23.33 17.32 23.66 18 24 C18.14875691 27.64454423 18.13867117 30.57531953 17 34.0625 C15.5272817 38.96088913 15.78489861 43.86756435 15.875 48.9375 C15.88853516 50.3925293 15.88853516 50.3925293 15.90234375 51.87695312 C15.92573893 54.25156407 15.95851824 56.62564776 16 59 C13.47519307 56.47519307 13.44261367 54.86176966 12.875 51.375 C12.70742187 50.37210937 12.53984375 49.36921875 12.3671875 48.3359375 C12.24601563 47.56507813 12.12484375 46.79421875 12 46 C11.01 46.495 11.01 46.495 10 47 C10.33 50.96 10.66 54.92 11 59 C10.67 59 10.34 59 10 59 C7.98062455 53.73055677 7.27324171 48.55707117 6.5625 43 C5.42194201 34.54421473 3.87789379 26.32392246 2 18 C0.73945969 11.92295073 -0.27624641 6.21554422 0 0 Z " fill="#7B8DB4" transform="translate(145,206)"/>
<path d="M0 0 C-0.99 0.495 -0.99 0.495 -2 1 C-2.65213292 3.02463255 -2.65213292 3.02463255 -3 5 C-2.34 5 -1.68 5 -1 5 C-0.855625 5.94875 -0.71125 6.8975 -0.5625 7.875 C-0.17064601 10.8934494 -0.17064601 10.8934494 1 13 C1.33333333 15 1.66666667 17 2 19 C2.350625 20.258125 2.70125 21.51625 3.0625 22.8125 C4.21487242 27.22565956 4.18888435 31.4667757 4 36 C3.34 36 2.68 36 2 36 C0.68 31.38 -0.64 26.76 -2 22 C-2.33 22.66 -2.66 23.32 -3 24 C-3.66 24 -4.32 24 -5 24 C-5.33 24.99 -5.66 25.98 -6 27 C-6.66 24.03 -7.32 21.06 -8 18 C-8.99 18 -9.98 18 -11 18 C-12.97094808 13.07262981 -13.1799928 9.21979128 -13 4 C-12.67 4.66 -12.34 5.32 -12 6 C-11.34 6 -10.68 6 -10 6 C-9.67 5.01 -9.34 4.02 -9 3 C-6.03848967 0.1442579 -4.06571818 -0.33880985 0 0 Z " fill="#8EA5D9" transform="translate(134,110)"/>
<path d="M0 0 C2.51261405 3.76892108 3.41143295 7.40398675 4.5625 11.75 C4.78719971 12.59095215 5.01189941 13.4319043 5.2434082 14.29833984 C6.94307372 21.00451171 7.62191917 27.38737794 7.76171875 34.2890625 C7.84035156 35.18367188 7.91898438 36.07828125 8 37 C8.66 37.33 9.32 37.66 10 38 C9.67 38.99 9.34 39.98 9 41 C9.08519209 42.67086428 9.23728874 44.33898808 9.4375 46 C9.75643825 48.71299373 10 51.26403716 10 54 C9.01 53.67 8.02 53.34 7 53 C6.505 51.515 6.505 51.515 6 50 C6.03480469 50.75925781 6.06960937 51.51851563 6.10546875 52.30078125 C6.13253906 53.29464844 6.15960938 54.28851563 6.1875 55.3125 C6.22230469 56.29863281 6.25710937 57.28476562 6.29296875 58.30078125 C6 61 6 61 4.48828125 62.85546875 C3.99714844 63.23316406 3.50601563 63.61085938 3 64 C2.34 63.34 1.68 62.68 1 62 C0.01 62 -0.98 62 -2 62 C-2 59.36 -2 56.72 -2 54 C-0.68 54.33 0.64 54.66 2 55 C2 52.03 2 49.06 2 46 C3.485 45.505 3.485 45.505 5 45 C4.83778623 34.41616758 4.83778623 34.41616758 2.5 24.1875 C-0.20272164 16.55395938 0.23851693 8.01087882 0 0 Z " fill="#4F6284" transform="translate(194,231)"/>
<path d="M0 0 C3 2 3 2 3.73046875 4.96875 C3.88128906 6.1340625 4.03210938 7.299375 4.1875 8.5 C4.34605469 9.6653125 4.50460938 10.830625 4.66796875 12.03125 C5 15 5 15 5 17 C5.495 18.0828125 5.495 18.0828125 6 19.1875 C7.20427003 22.57450946 7 25.42490883 7 29 C7.32806641 29.64590088 7.65613281 30.29180176 7.99414062 30.95727539 C9.1261007 33.25608849 9.19448573 34.58366605 9.09375 37.12109375 C8.97889604 42.1244195 9.21326748 47.0679295 9.5 52.0625 C9.54769531 52.92810547 9.59539062 53.79371094 9.64453125 54.68554688 C9.76082628 56.79048698 9.88009633 58.89526237 10 61 C9.34 61 8.68 61 8 61 C7.87882812 60.38511719 7.75765625 59.77023437 7.6328125 59.13671875 C7.46523437 58.32847656 7.29765625 57.52023437 7.125 56.6875 C6.96257812 55.88699219 6.80015625 55.08648437 6.6328125 54.26171875 C6.05521001 51.74698882 6.05521001 51.74698882 4 49 C3.07719042 46.23157127 2.91629327 44.71056559 3 41.875 C3 40.59625 3 39.3175 3 38 C2.67 37.67 2.34 37.34 2 37 C1.92747816 34.21697443 2.00375315 31.44719465 2.0625 28.6640625 C2.12808574 25.89443987 2.12808574 25.89443987 1 23 C0.85291523 21.39780787 0.75280783 19.79103363 0.68359375 18.18359375 C0.64169922 17.25482422 0.59980469 16.32605469 0.55664062 15.36914062 C0.51732422 14.40169922 0.47800781 13.43425781 0.4375 12.4375 C0.39431641 11.46619141 0.35113281 10.49488281 0.30664062 9.49414062 C0 2.49007937 0 2.49007937 0 0 Z " fill="#8699C6" transform="translate(120,289)"/>
<path d="M0 0 C2.85474902 3.94154356 4.23560453 8.22872125 5.6875 12.8125 C5.91244141 13.50537109 6.13738281 14.19824219 6.36914062 14.91210938 C6.91828909 16.60629082 7.45991862 18.30290633 8 20 C8.99 20 9.98 20 11 20 C11.144375 21.03125 11.28875 22.0625 11.4375 23.125 C11.623125 24.40375 11.80875 25.6825 12 27 C12.12375 28.3921875 12.12375 28.3921875 12.25 29.8125 C12.98675781 32.94372068 14.03975759 35.06543303 15.5625 37.875 C18.04825715 42.589367 18.48805 45.72906001 18 51 C16.68 50.34 15.36 49.68 14 49 C14 47.68 14 46.36 14 45 C13.34 45 12.68 45 12 45 C11.70867187 44.11441406 11.41734375 43.22882813 11.1171875 42.31640625 C8.47324519 34.32637934 5.7489797 26.37371699 2.88037109 18.46118164 C1 13.2157735 1 13.2157735 1 11 C0.34 10.67 -0.32 10.34 -1 10 C-2.0703125 7.93359375 -2.0703125 7.93359375 -3.125 5.4375 C-3.47820312 4.61121094 -3.83140625 3.78492187 -4.1953125 2.93359375 C-4.46085937 2.29550781 -4.72640625 1.65742187 -5 1 C-2 0 -2 0 0 0 Z " fill="#97B1EA" transform="translate(108,119)"/>
<path d="M0 0 C2 1 2 1 2.625 2.625 C3.12095645 5.7660575 3.06103811 8.82601831 3 12 C3.66 12 4.32 12 5 12 C5.17015625 12.969375 5.3403125 13.93875 5.515625 14.9375 C6.79958105 22.08479531 8.24135791 29.11050315 10.125 36.125 C12.4710787 45.00019828 13.06804058 53.83153229 13 63 C12.34 63 11.68 63 11 63 C8.71428571 54.57142857 8.71428571 54.57142857 9 50 C8.01 49.67 7.02 49.34 6 49 C5.87625 48.01 5.7525 47.02 5.625 46 C4.90351022 40.98965432 3.63078647 36.14281875 2.203125 31.29296875 C0.66948994 26.00482143 -0.36727975 21.50919627 0 16 C2 17 2 17 2.6328125 18.84765625 C2.79523438 19.57855469 2.95765625 20.30945313 3.125 21.0625 C3.29257813 21.79597656 3.46015625 22.52945313 3.6328125 23.28515625 C3.75398437 23.85105469 3.87515625 24.41695312 4 25 C3.56940909 18.28872103 2.38906947 12.05462336 0.62109375 5.56640625 C0 3 0 3 0 0 Z " fill="#ABB9DB" transform="translate(134,177)"/>
<path d="M0 0 C0.66 0.33 1.32 0.66 2 1 C2 2.65 2 4.3 2 6 C3.32 5.67 4.64 5.34 6 5 C6.05391993 6.79133978 6.09275571 8.58313899 6.125 10.375 C6.14820313 11.37273437 6.17140625 12.37046875 6.1953125 13.3984375 C6 16 6 16 4 18 C3.34 17.67 2.68 17.34 2 17 C1.97305149 18.95825873 1.95362782 20.91662226 1.9375 22.875 C1.92589844 23.96554688 1.91429687 25.05609375 1.90234375 26.1796875 C1.80255697 28.95177546 1.80255697 28.95177546 3 31 C3.36848559 33.45848979 3.70097993 35.90808445 4 38.375 C4.5478256 43.25695384 4.5478256 43.25695384 5.55859375 48.0546875 C6.21755624 50.95878769 6.09220697 53.7793027 6.0625 56.75 C6.05347656 57.92046875 6.04445312 59.0909375 6.03515625 60.296875 C6.02355469 61.18890625 6.01195312 62.0809375 6 63 C3.2164712 60.65664403 2.55640031 59.04791807 2.12109375 55.46484375 C2.00443359 54.57216797 1.88777344 53.67949219 1.76757812 52.75976562 C1.65865234 51.82841797 1.54972656 50.89707031 1.4375 49.9375 C1.20991509 48.11291923 0.97945285 46.28869501 0.74609375 44.46484375 C0.63104492 43.56048584 0.51599609 42.65612793 0.39746094 41.72436523 C0.00105005 39.00719746 -0.51652866 36.34288775 -1.08203125 33.65625 C-1.79428272 30.23494143 -2.22874803 27.0726416 -2.125 23.5625 C-2.10695312 22.75941406 -2.08890625 21.95632812 -2.0703125 21.12890625 C-2.04710937 20.42636719 -2.02390625 19.72382813 -2 19 C-2 18.01 -2 17.02 -2 16 C-1.67 15.67 -1.34 15.34 -1 15 C-0.92725996 12.24951722 -1.00374236 9.51231099 -1.0625 6.76171875 C-1.00693074 4.30625192 -0.71043531 2.33666613 0 0 Z " fill="#7686A4" transform="translate(192,208)"/>
<path d="M0 0 C1.32 0.66 2.64 1.32 4 2 C3.83886719 2.96292969 3.67773438 3.92585938 3.51171875 4.91796875 C2.87741943 9.38500768 2.80980412 13.80633461 2.8125 18.3125 C2.81040527 19.15337158 2.80831055 19.99424316 2.80615234 20.8605957 C2.84367969 26.09971707 3.39950503 30.82078723 4.6875 35.91015625 C5.23534436 39.57386539 4.15710224 42.52869329 3 46 C7.29 46 11.58 46 16 46 C16 46.33 16 46.66 16 47 C13.02077407 47.02683987 10.04178705 47.04676037 7.0625 47.0625 C6.21236328 47.07087891 5.36222656 47.07925781 4.48632812 47.08789062 C3.67744141 47.09111328 2.86855469 47.09433594 2.03515625 47.09765625 C1.2862915 47.10289307 0.53742676 47.10812988 -0.23413086 47.11352539 C-2 47 -2 47 -3 46 C-3.28469564 44.53051037 -3.5044763 43.04808195 -3.6875 41.5625 C-3.79449219 40.75941406 -3.90148437 39.95632813 -4.01171875 39.12890625 C-4 37 -4 37 -2 35 C-2 33.68 -2 32.36 -2 31 C-2.66 30.34 -3.32 29.68 -4 29 C-3.34 29 -2.68 29 -2 29 C-2 26.36 -2 23.72 -2 21 C-1.67 21.66 -1.34 22.32 -1 23 C-0.34 23 0.32 23 1 23 C0.67 15.41 0.34 7.82 0 0 Z " fill="#6C7C98" transform="translate(161,317)"/>
<path d="M0 0 C0.79581416 3.43655294 1.58585737 6.87440948 2.375 10.3125 C2.59671875 11.26962891 2.8184375 12.22675781 3.046875 13.21289062 C7.1630141 31.19073346 7.1630141 31.19073346 7 38 C4.78600697 34.20458337 3.99019802 30.24370579 3 26 C2.34 26 1.68 26 1 26 C-1.76877096 20.84435753 -3.75975498 15.94631691 -5.2890625 10.296875 C-5.98711531 8.04162746 -6.88552178 6.07654915 -8 4 C-1.125 0 -1.125 0 0 0 Z " fill="#98B2EB" transform="translate(103,121)"/>
<path d="M0 0 C0.33 0 0.66 0 1 0 C3.28486806 7.00169868 3.96469385 14.07777959 4.76757812 21.375 C5.4303995 26.92658673 6.41499846 31.92235314 8.41699219 37.15307617 C9.23024152 39.72938739 8.98148733 41.50853217 8 44 C7.34 44.66 6.68 45.32 6 46 C5.5342637 48.55867474 5.16515752 51.04687908 4.875 53.625 C4.78863281 54.33140625 4.70226562 55.0378125 4.61328125 55.765625 C4.40118817 57.50950141 4.19959009 59.2546484 4 61 C3.67 61 3.34 61 3 61 C2.98018066 60.13012451 2.96036133 59.26024902 2.93994141 58.36401367 C2.48872666 37.07843037 2.48872666 37.07843037 0.66503906 15.87841797 C0.01900556 10.53317139 -0.17631917 5.37773473 0 0 Z " fill="#516486" transform="translate(178,297)"/>
<path d="M0 0 C0.66 0 1.32 0 2 0 C2.1953125 2.05078125 2.390625 4.1015625 2.5859375 6.15234375 C2.72257813 6.76207031 2.85921875 7.37179687 3 8 C3.66 8.33 4.32 8.66 5 9 C4.125 15.75 4.125 15.75 3 18 C3.04690031 19.89695524 3.04690031 19.89695524 3.33984375 22.02734375 C3.43330078 22.81947266 3.52675781 23.61160156 3.62304688 24.42773438 C3.72681641 25.25595703 3.83058594 26.08417969 3.9375 26.9375 C4.13551528 28.57144544 4.33218494 30.20555467 4.52734375 31.83984375 C4.61749756 32.56550537 4.70765137 33.29116699 4.80053711 34.03881836 C5.19951528 37.96169677 4.54951441 40.41674792 3 44 C1.38748273 41.12137921 0.70047435 38.83982825 0.4375 35.55859375 C0.36273438 34.72779297 0.28796875 33.89699219 0.2109375 33.04101562 C0.06999808 31.30145774 -0.07062553 29.56187423 -0.2109375 27.82226562 C-0.28570312 26.99275391 -0.36046875 26.16324219 -0.4375 25.30859375 C-0.52837891 24.17635376 -0.52837891 24.17635376 -0.62109375 23.02124023 C-0.92060332 20.69454143 -0.92060332 20.69454143 -3 18 C-3.07905064 15.66800612 -3.08798769 13.33167378 -3 11 C-2.34 11 -1.68 11 -1 11 C-0.67 7.37 -0.34 3.74 0 0 Z " fill="#4C5E7C" transform="translate(198,311)"/>
<path d="M0 0 C0.99 1.32 1.98 2.64 3 4 C2.01 4.495 2.01 4.495 1 5 C0.34786708 7.02463255 0.34786708 7.02463255 0 9 C0.66 9.33 1.32 9.66 2 10 C1.34 11.65 0.68 13.3 0 15 C0.66 15.33 1.32 15.66 2 16 C1.34 18.64 0.68 21.28 0 24 C0.66 24.33 1.32 24.66 2 25 C3.12354066 29.21327749 3.07538807 31.23835912 1 35 C1.33 35.99 1.66 36.98 2 38 C1.01 38 0.02 38 -1 38 C-1 37.01 -1 36.02 -1 35 C-1.66 34.67 -2.32 34.34 -3 34 C-4.61335305 31.49930277 -5.11343313 29.71425474 -4.64453125 26.76171875 C-4.24626263 25.04301592 -3.84234331 23.3256154 -3.43359375 21.609375 C-2.99365384 18.96180872 -3.14646454 17.12033008 -3.625 14.5 C-4.49215967 9.05345783 -2.34936679 4.82981414 0 0 Z " fill="#7C91BE" transform="translate(174,178)"/>
<path d="M0 0 C4.21365034 6.32047551 4.3482453 15.51272597 4 23 C2.58344207 23.0272415 1.16672955 23.04650467 -0.25 23.0625 C-1.43335938 23.07990234 -1.43335938 23.07990234 -2.640625 23.09765625 C-5 23 -5 23 -9 22 C-9 18.7 -9 15.4 -9 12 C-7.68 12 -6.36 12 -5 12 C-4.67 12.99 -4.34 13.98 -4 15 C-3.34 13.68 -2.68 12.36 -2 11 C-1.67 11 -1.34 11 -1 11 C-0.67 7.37 -0.34 3.74 0 0 Z " fill="#7183AB" transform="translate(147,340)"/>
<path d="M0 0 C2.30139426 3.75152931 2.72010988 7.74087447 3.2890625 12.01953125 C3.39721283 12.79632736 3.50536316 13.57312347 3.61679077 14.37345886 C3.84363406 16.01453758 4.06699676 17.65610068 4.28710938 19.2980957 C4.62257425 21.79444888 4.97055168 24.28881731 5.3203125 26.78320312 C5.53981274 28.38270972 5.75858626 29.98231625 5.9765625 31.58203125 C6.07965729 32.32081009 6.18275208 33.05958893 6.28897095 33.820755 C6.876307 38.25678755 7.09625091 42.52506742 7 47 C6.34 46.01 5.68 45.02 5 44 C4.34 44.66 3.68 45.32 3 46 C2.51842161 42.68784607 2.04018889 39.37521694 1.5625 36.0625 C1.42779297 35.13630859 1.29308594 34.21011719 1.15429688 33.25585938 C-1.29632407 16.22105521 -1.29632407 16.22105521 -0.5625 10.8125 C-0.12027263 7.17829818 0.09653264 3.66824051 0 0 Z " fill="#818FA8" transform="translate(157,274)"/>
<path d="M0 0 C2.42303127 2.42303127 2.49543134 3.67350177 3.0703125 7.0078125 C3.33134766 8.48701172 3.33134766 8.48701172 3.59765625 9.99609375 C3.77167969 11.02863281 3.94570312 12.06117188 4.125 13.125 C4.30675781 14.16527344 4.48851562 15.20554688 4.67578125 16.27734375 C5.12429883 18.85041828 5.56538056 21.42454771 6 24 C3 22 3 22 2.48828125 19.8359375 C2.40126953 18.61777344 2.40126953 18.61777344 2.3125 17.375 C2.24675781 16.55773437 2.18101562 15.74046875 2.11328125 14.8984375 C2.07589844 14.27195313 2.03851563 13.64546875 2 13 C1.01 13 0.02 13 -1 13 C-0.79503906 13.79921875 -0.59007812 14.5984375 -0.37890625 15.421875 C1.47096616 22.96298165 2.59490607 30.24734036 3 38 C0.24800346 33.87200519 -0.24011269 29.65466252 -1.21875 24.8359375 C-1.4765625 23.90007812 -1.734375 22.96421875 -2 22 C-2.66 21.67 -3.32 21.34 -4 21 C-4.02715383 19.25008666 -4.04646551 17.50005055 -4.0625 15.75 C-4.07410156 14.77546875 -4.08570313 13.8009375 -4.09765625 12.796875 C-4.01195577 10.34241322 -3.70706066 8.33831086 -3 6 C-2.34 6 -1.68 6 -1 6 C-1.020625 5.195625 -1.04125 4.39125 -1.0625 3.5625 C-1 1 -1 1 0 0 Z " fill="#8D9FCA" transform="translate(139,234)"/>
<path d="M0 0 C12.50695051 28.57971245 12.50695051 28.57971245 12 41 C10 38 10 38 10 36 C9.34 35.67 8.68 35.34 8 35 C6.96431483 30.65012229 6.91089241 26.45537928 7 22 C6.34 22 5.68 22 5 22 C4.67 22.66 4.34 23.32 4 24 C3.76925781 23.26136719 3.53851563 22.52273437 3.30078125 21.76171875 C0.99477369 14.58848574 -1.73839465 7.7905554 -5 1 C-2 0 -2 0 0 0 Z " fill="#ACC1F1" transform="translate(112,117)"/>
<path d="M0 0 C0.66 0 1.32 0 2 0 C3.61064629 3.65079826 4.44894091 7.0507432 5 11 C5 8.36 5 5.72 5 3 C5.99 2.67 6.98 2.34 8 2 C7.98839844 2.89460937 7.97679687 3.78921875 7.96484375 4.7109375 C7.91132989 11.88179515 8.08195017 18.88511384 9 26 C8.34 25.67 7.68 25.34 7 25 C6.26924352 22.6859378 5.59861742 20.35171131 5 18 C5 22.62 5 27.24 5 32 C4.67 32 4.34 32 4 32 C3.82609741 30.91114502 3.82609741 30.91114502 3.64868164 29.80029297 C3.12016201 26.49182878 2.59133387 23.18341397 2.0625 19.875 C1.88009766 18.73289062 1.69769531 17.59078125 1.50976562 16.4140625 C1.33251953 15.30546875 1.15527344 14.196875 0.97265625 13.0546875 C0.72914429 11.53077393 0.72914429 11.53077393 0.48071289 9.97607422 C0.14116542 7.87394942 -0.22992348 5.7768035 -0.62329102 3.68408203 C-0.74760498 2.79833496 -0.87191895 1.91258789 -1 1 C-0.67 0.67 -0.34 0.34 0 0 Z " fill="#6D7FA8" transform="translate(155,252)"/>
<path d="M0 0 C0.99 0.33 1.98 0.66 3 1 C3.12117187 1.6290625 3.24234375 2.258125 3.3671875 2.90625 C4.16310839 6.97156902 4.97296279 11.00229956 6.0625 15 C7.07132529 18.86325345 7.378924 22.69410177 7.71484375 26.6640625 C8.07401878 29.6063456 8.96205499 32.23214664 10 35 C10 35.66 10 36.32 10 37 C10.66 37.33 11.32 37.66 12 38 C11.01 40.97 10.02 43.94 9 47 C8.67 47 8.34 47 8 47 C7.96261719 46.40832031 7.92523438 45.81664062 7.88671875 45.20703125 C7.48623099 40.39332549 6.9614965 36.99158223 4 33 C5.485 32.505 5.485 32.505 7 32 C7 31.34 7 30.68 7 30 C6.34 30 5.68 30 5 30 C5 27.69 5 25.38 5 23 C4.34 23 3.68 23 3 23 C3.04125 21.989375 3.0825 20.97875 3.125 19.9375 C2.97298311 15.1489681 2.53341457 10.82830199 -0.625 7.0625 C-1.07875 6.711875 -1.5325 6.36125 -2 6 C-1.34 4.02 -0.68 2.04 0 0 Z " fill="#687DA9" transform="translate(188,165)"/>
<path d="M0 0 C1.32 0 2.64 0 4 0 C4.144375 1.03125 4.28875 2.0625 4.4375 3.125 C4.623125 4.40375 4.80875 5.6825 5 7 C5.0825 7.928125 5.165 8.85625 5.25 9.8125 C5.98675781 12.94372068 7.03975759 15.06543303 8.5625 17.875 C11.04825715 22.589367 11.48805 25.72906001 11 31 C9.68 30.34 8.36 29.68 7 29 C7 27.68 7 26.36 7 25 C6.34 25 5.68 25 5 25 C4.87625 23.824375 4.7525 22.64875 4.625 21.4375 C4.13259615 17.47746337 3.12346931 13.83301294 2 10 C1.28251824 6.67615592 0.63191414 3.34107797 0 0 Z " fill="#A1B7E9" transform="translate(115,139)"/>
<path d="M0 0 C0.33 0 0.66 0 1 0 C1.33 11.88 1.66 23.76 2 36 C1.01 36 0.02 36 -1 36 C-3.5035281 26.0529464 -3.18974296 16.17233107 -3 6 C-2.01 6.495 -2.01 6.495 -1 7 C-0.67 4.69 -0.34 2.38 0 0 Z " fill="#627290" transform="translate(180,327)"/>
<path d="M0 0 C0.99 0.33 1.98 0.66 3 1 C3.04898438 1.66386719 3.09796875 2.32773437 3.1484375 3.01171875 C3.54425358 8.41293983 3.54425358 8.41293983 5.0625 13.5625 C6.01825207 16.04745539 6.083614 17.40436666 6.02734375 20.0234375 C5.97417222 25.05346436 6.21177547 30.04194026 6.5 35.0625 C6.54769531 35.92810547 6.59539062 36.79371094 6.64453125 37.68554688 C6.76082628 39.79048698 6.88009633 41.89526237 7 44 C6.34 44 5.68 44 5 44 C3.8714522 40.6143566 3.60230117 37.58820675 3.28125 34.03125 C3.21844849 33.35453247 3.15564697 32.67781494 3.09094238 31.98059082 C2.82275973 29.08958515 2.56290386 26.19784457 2.30224609 23.30615234 C2.110611 21.19341108 1.91478152 19.08108712 1.71875 16.96875 C1.54762695 15.07286133 1.54762695 15.07286133 1.37304688 13.13867188 C1.10438259 9.97639797 1.10438259 9.97639797 0 7 C-0.03954234 4.66700175 -0.04401732 2.33291811 0 0 Z " fill="#6A7FAE" transform="translate(123,306)"/>
<path d="M0 0 C0.99 0.495 0.99 0.495 2 1 C2.59773582 3.51049042 3.08256416 5.95868731 3.5 8.5 C3.73792256 9.88570284 3.97751936 11.27111922 4.21875 12.65625 C4.34209717 13.36894043 4.46544434 14.08163086 4.5925293 14.81591797 C5.00196498 17.01053247 5.4843936 19.17683857 5.98828125 21.3515625 C7.15234731 26.48943272 7.94020824 31.66236385 8.6875 36.875 C8.82994141 37.81085938 8.97238281 38.74671875 9.11914062 39.7109375 C9.3134668 41.05671875 9.3134668 41.05671875 9.51171875 42.4296875 C9.62990967 43.23647949 9.74810059 44.04327148 9.86987305 44.87451172 C10 47 10 47 9 50 C6.29887698 45.46211332 5.77612463 43.11802428 7 38 C7 36.68 7 35.36 7 34 C5.35 33.34 3.7 32.68 2 32 C2.03480469 30.5459375 2.03480469 30.5459375 2.0703125 29.0625 C2.22896464 19.20623554 1.45134064 9.7447157 0 0 Z " fill="#9EA8C6" transform="translate(144,212)"/>
<path d="M0 0 C2.74059674 2.74059674 2.96041756 5.69240643 3.625 9.375 C3.75688721 10.0865625 3.88877441 10.798125 4.0246582 11.53125 C5.09524297 17.70977669 5.32041649 23.73407753 5 30 C4.34 30 3.68 30 3 30 C0.71428571 21.57142857 0.71428571 21.57142857 1 17 C0.01 16.67 -0.98 16.34 -2 16 C-2.144375 14.948125 -2.28875 13.89625 -2.4375 12.8125 C-2.87526966 9.84539451 -3.37804866 6.93205634 -4 4 C-3.34 3.67 -2.68 3.34 -2 3 C-1.01 5.31 -0.02 7.62 1 10 C0.67 6.7 0.34 3.4 0 0 Z " fill="#A6B3D4" transform="translate(142,210)"/>
<path d="M0 0 C6.75346747 10.13020121 9.305735 29.13748201 9 41 C8.34 40.67 7.68 40.34 7 40 C7.061875 39.319375 7.12375 38.63875 7.1875 37.9375 C6.99262999 34.88453645 6.12898032 32.770429 4.859375 30.015625 C2.14144468 23.64084299 0.61795748 16.72074645 -1 10 C-0.34 10 0.32 10 1 10 C0.84402344 9.44570312 0.68804687 8.89140625 0.52734375 8.3203125 C0.33269531 7.59585938 0.13804687 6.87140625 -0.0625 6.125 C-0.35833984 5.04605469 -0.35833984 5.04605469 -0.66015625 3.9453125 C-1 2 -1 2 0 0 Z " fill="#B5C5E7" transform="translate(130,165)"/>
<path d="M0 0 C0.33 0 0.66 0 1 0 C1.50612064 2.8740422 2.00506541 5.74902873 2.5 8.625 C2.64308594 9.43324219 2.78617188 10.24148437 2.93359375 11.07421875 C3.67876251 15.43877864 4.17272306 19.55238129 4 24 C3.67 23.01 3.34 22.02 3 21 C2.34 21.66 1.68 22.32 1 23 C1 23.66 1 24.32 1 25 C0.34 25 -0.32 25 -1 25 C-1.66 22.69 -2.32 20.38 -3 18 C-2.67 17.67 -2.34 17.34 -2 17 C-2.43945077 14.4868909 -3.03828341 12.02551334 -3.625 9.54296875 C-4.0031026 6.97896052 -3.81619314 5.43157538 -3 3 C-2.67 4.32 -2.34 5.64 -2 7 C-1.34 7 -0.68 7 0 7 C0 4.69 0 2.38 0 0 Z " fill="#8399C9" transform="translate(146,175)"/>
<path d="M0 0 C2.97 0.495 2.97 0.495 6 1 C6.33 6.28 6.66 11.56 7 17 C6.34 16.01 5.68 15.02 5 14 C5.33 15.98 5.66 17.96 6 20 C5.34 20.33 4.68 20.66 4 21 C3.34 20.67 2.68 20.34 2 20 C1.5859375 17.05859375 1.5859375 17.05859375 1.375 13.4375 C1.30023438 12.23996094 1.22546875 11.04242188 1.1484375 9.80859375 C1.09945312 8.88175781 1.05046875 7.95492188 1 7 C-0.32 7.33 -1.64 7.66 -3 8 C-1.125 1.125 -1.125 1.125 0 0 Z " fill="#8294BF" transform="translate(138,280)"/>
<path d="M0 0 C0.99 0.495 0.99 0.495 2 1 C2.75338041 3.43965764 3.40645544 5.83398774 4 8.3125 C5.43909325 14.35977683 5.43909325 14.35977683 8 20 C8.33 19.01 8.66 18.02 9 17 C10.84295748 18.84295748 10.42991613 21.76407406 10.625 24.25 C10.72039062 25.38953125 10.81578125 26.5290625 10.9140625 27.703125 C10.99195073 30.69120088 10.72643757 33.11593444 10 36 C9.34 36 8.68 36 8 36 C0 6.33992095 0 6.33992095 0 0 Z " fill="#A0B4E3" transform="translate(124,171)"/>
<path d="M0 0 C0.33 0 0.66 0 1 0 C1.08703823 3.43734063 1.14040272 6.87439837 1.1875 10.3125 C1.22520508 11.77719727 1.22520508 11.77719727 1.26367188 13.27148438 C1.27817383 14.67817383 1.27817383 14.67817383 1.29296875 16.11328125 C1.31653442 17.40939331 1.31653442 17.40939331 1.34057617 18.73168945 C0.93240678 21.45018536 0.10407096 22.30363829 -2 24 C-2.66 23.34 -3.32 22.68 -4 22 C-4.99 22 -5.98 22 -7 22 C-7 19.36 -7 16.72 -7 14 C-5.68 14.33 -4.36 14.66 -3 15 C-3 12.03 -3 9.06 -3 6 C-2.01 5.67 -1.02 5.34 0 5 C0 3.35 0 1.7 0 0 Z " fill="#5E708F" transform="translate(199,271)"/>
<path d="M0 0 C0.33 0 0.66 0 1 0 C1.33 2.97 1.66 5.94 2 9 C2.66 9 3.32 9 4 9 C4.50780894 11.20655075 5.00591365 13.41533605 5.5 15.625 C5.7784375 16.85476563 6.056875 18.08453125 6.34375 19.3515625 C6.94091621 22.67152228 7.12409534 25.63908451 7 29 C5.35 29 3.7 29 2 29 C1.66022275 25.66729126 1.32936937 22.33375214 1 19 C0.90460938 18.06542969 0.80921875 17.13085938 0.7109375 16.16796875 C0.18019535 10.74681677 -0.1027694 5.44677829 0 0 Z " fill="#617392" transform="translate(169,334)"/>
<path d="M0 0 C3.40271011 2.6293669 4.28762747 5.92633572 5 10 C5.32099846 13.33594598 5.56125958 16.66595727 5.75390625 20.01171875 C5.90426643 22.86506897 5.90426643 22.86506897 6.5234375 25.03515625 C7.1551426 27.63964531 7.09435027 30.07457696 7.0625 32.75 C7.05347656 33.73484375 7.04445312 34.7196875 7.03515625 35.734375 C7.02355469 36.48203125 7.01195312 37.2296875 7 38 C4.71636622 35.71636622 4.2847151 34.25204532 3.375 31.1875 C3.11460937 30.33542969 2.85421875 29.48335938 2.5859375 28.60546875 C1.80459745 25.13110999 1.37986264 22.24027473 3 19 C2.35792955 15.74923773 1.51582972 12.56834171 0.69140625 9.359375 C0.02678879 6.13016021 -0.12441571 3.28457469 0 0 Z " fill="#9AA6C6" transform="translate(146,251)"/>
<path d="M0 0 C0.66 0.33 1.32 0.66 2 1 C2 2.65 2 4.3 2 6 C3.32 5.67 4.64 5.34 6 5 C6.05391993 6.79133978 6.09275571 8.58313899 6.125 10.375 C6.14820313 11.37273437 6.17140625 12.37046875 6.1953125 13.3984375 C6 16 6 16 4 18 C3.34 17.67 2.68 17.34 2 17 C1.67 18.98 1.34 20.96 1 23 C-1.7839183 21.60804085 -1.97898997 19.84424221 -3 17 C-2.34 16.34 -1.68 15.68 -1 15 C-0.79451868 12.46493189 -0.79451868 12.46493189 -0.9375 9.625 C-1.04393358 6.19136027 -1.00777186 3.29674206 0 0 Z " fill="#6E7FA4" transform="translate(192,208)"/>
<path d="M0 0 C0.66 0.33 1.32 0.66 2 1 C2.59355614 3.64860427 2.74209269 6.29197322 3 9 C2.67 9 2.34 9 2 9 C1.80609271 11.31197155 1.62003633 13.6246029 1.4375 15.9375 C1.33308594 17.22527344 1.22867188 18.51304687 1.12109375 19.83984375 C1.08113281 20.88269531 1.04117188 21.92554688 1 23 C1.33 23.33 1.66 23.66 2 24 C2.07226502 25.85287502 2.0838122 27.70833878 2.0625 29.5625 C2.05347656 30.57441406 2.04445312 31.58632813 2.03515625 32.62890625 C2.02355469 33.41136719 2.01195312 34.19382812 2 35 C1.34 35 0.68 35 0 35 C-3.62700965 20.64308682 -3.62700965 20.64308682 -3 15 C-2.34 14.34 -1.68 13.68 -1 13 C-0.53513282 9.87803664 -0.53513282 9.87803664 -0.375 6.375 C-0.30023438 5.18648438 -0.22546875 3.99796875 -0.1484375 2.7734375 C-0.09945312 1.85820312 -0.05046875 0.94296875 0 0 Z " fill="#687A9D" transform="translate(171,308)"/>
<path d="M0 0 C3 1 3 1 5 4 C5.99 4.66 6.98 5.32 8 6 C7.34 7.32 6.68 8.64 6 10 C5.34 9.67 4.68 9.34 4 9 C4 13.29 4 17.58 4 22 C3.67 21.34 3.34 20.68 3 20 C2.34 20 1.68 20 1 20 C-0.1482685 17.703463 -0.11561175 16.41686833 -0.09765625 13.8671875 C-0.09443359 13.06152344 -0.09121094 12.25585938 -0.08789062 11.42578125 C-0.07951172 10.58402344 -0.07113281 9.74226563 -0.0625 8.875 C-0.05798828 8.02550781 -0.05347656 7.17601562 -0.04882812 6.30078125 C-0.03702874 4.20049091 -0.01909306 2.1002367 0 0 Z " fill="#576784" transform="translate(194,302)"/>
<path d="M0 0 C0.33 0.66 0.66 1.32 1 2 C1.66 2.33 2.32 2.66 3 3 C3.20935002 8.12907557 2.48475098 12.10905559 1 17 C0.63049535 19.32787927 0.28647533 21.66045145 0 24 C-0.33 24 -0.66 24 -1 24 C-1.50812114 21.48056604 -2.00664534 18.95983127 -2.5 16.4375 C-2.64308594 15.73302734 -2.78617188 15.02855469 -2.93359375 14.30273438 C-3.80874925 9.78109762 -4.14523405 5.60512972 -4 1 C-2.02 1.99 -2.02 1.99 0 3 C0 2.01 0 1.02 0 0 Z " fill="#7084B2" transform="translate(160,227)"/>
<path d="M0 0 C2.72528885 2.72528885 2.94188491 5.65644017 3.625 9.3125 C3.7590625 9.97701172 3.893125 10.64152344 4.03125 11.32617188 C4.73263261 14.94401789 5.04137602 18.32443029 5 22 C5.33 22.33 5.66 22.66 6 23 C6.04063832 24.66617115 6.042721 26.33388095 6 28 C5.01 28.33 4.02 28.66 3 29 C-0.7492088 20.00189888 -0.16979423 9.58394089 0 0 Z " fill="#95A5CD" transform="translate(129,138)"/>
<path d="M0 0 C2.61679835 3.92519752 3.45447765 7.84262856 4.625 12.375 C4.85445312 13.22578125 5.08390625 14.0765625 5.3203125 14.953125 C7.5716861 23.55658839 7.5716861 23.55658839 7 27 C6.01 27.66 5.02 28.32 4 29 C0.18704269 19.67144408 0.29542343 9.92215228 0 0 Z " fill="#586C91" transform="translate(194,231)"/>
<path d="M0 0 C1.32 0.33 2.64 0.66 4 1 C3.96519531 1.96099609 3.96519531 1.96099609 3.9296875 2.94140625 C3.815165 8.43030594 4.45956267 12.70474666 6 18 C6.16447337 21.00889514 6.12285241 23.99011607 6 27 C5.34 27 4.68 27 4 27 C3.32409812 23.62678224 2.66094482 20.25117758 2 16.875 C1.80921875 15.92367187 1.6184375 14.97234375 1.421875 13.9921875 C0.50243109 9.26361884 -0.2609763 4.84437265 0 0 Z " fill="#8B9AC0" transform="translate(149,216)"/>
<path d="M0 0 C2.14336161 3.4766338 2.21277626 6.21229195 2.125 10.25 C2.10695312 11.32765625 2.08890625 12.4053125 2.0703125 13.515625 C2.04710937 14.33546875 2.02390625 15.1553125 2 16 C0.35 16 -1.3 16 -3 16 C-4.6033559 12.7932882 -4.49604443 9.47875318 -4 6 C-2.88843696 3.68950216 -1.61720298 2.02150372 0 0 Z " fill="#8498C7" transform="translate(137,256)"/>
<path d="M0 0 C0.33 0 0.66 0 1 0 C2.21312497 10.35488814 3.37534623 20.55286325 3 31 C2.01 31 1.02 31 0 31 C-0.16754147 26.90682137 -0.32810824 22.81343505 -0.48217773 18.71972656 C-0.53559149 17.32674778 -0.59092043 15.93384107 -0.64819336 14.54101562 C-0.73012069 12.54056398 -0.80462098 10.5398125 -0.87890625 8.5390625 C-0.9260376 7.33459473 -0.97316895 6.13012695 -1.02172852 4.88916016 C-1 2 -1 2 0 0 Z " fill="#4A5F84" transform="translate(168,332)"/>
<path d="M0 0 C0.33 0 0.66 0 1 0 C1.33534729 2.93728294 1.66836013 5.87479818 2 8.8125 C2.09539062 9.64587891 2.19078125 10.47925781 2.2890625 11.33789062 C2.37929687 12.14033203 2.46953125 12.94277344 2.5625 13.76953125 C2.64628906 14.50792236 2.73007813 15.24631348 2.81640625 16.00708008 C3.17884443 19.94136581 2.55509334 22.40384666 1 26 C-0.81367756 22.88884887 -1.2477493 20.63598784 -1.23046875 17.05078125 C-1.22853516 16.12072266 -1.22660156 15.19066406 -1.22460938 14.23242188 C-1.21236328 13.26884766 -1.20011719 12.30527344 -1.1875 11.3125 C-1.18685547 10.33732422 -1.18621094 9.36214844 -1.18554688 8.35742188 C-1.14034598 1.14034598 -1.14034598 1.14034598 0 0 Z " fill="#354B69" transform="translate(200,329)"/>
<path d="M0 0 C0.33 0 0.66 0 1 0 C1.33885038 2.52019972 1.67120335 5.04098516 2 7.5625 C2.09539062 8.26697266 2.19078125 8.97144531 2.2890625 9.69726562 C2.86666417 14.17367855 3.09489383 18.48661238 3 23 C2.34 22.01 1.68 21.02 1 20 C0.34 20.66 -0.32 21.32 -1 22 C-1.66 16.06 -2.32 10.12 -3 4 C-2.34 4 -1.68 4 -1 4 C-0.67 2.68 -0.34 1.36 0 0 Z " fill="#7A89A3" transform="translate(161,298)"/>
<path d="M0 0 C0.99 0 1.98 0 3 0 C3.33 0.99 3.66 1.98 4 3 C4.32484375 3.62003906 4.6496875 4.24007812 4.984375 4.87890625 C7.26497528 9.64185221 8.5570514 15.01053072 7.125 20.125 C6.75375 20.74375 6.3825 21.3625 6 22 C5.34 21.67 4.68 21.34 4 21 C3.5859375 17.83984375 3.5859375 17.83984375 3.375 13.9375 C3.30023438 12.64714844 3.22546875 11.35679687 3.1484375 10.02734375 C3.09945312 9.02832031 3.05046875 8.02929688 3 7 C2.34 7 1.68 7 1 7 C1 5.68 1 4.36 1 3 C0.34 2.67 -0.32 2.34 -1 2 C-0.67 1.34 -0.34 0.68 0 0 Z " fill="#7790C3" transform="translate(141,152)"/>
<path d="M0 0 C0.66 0.33 1.32 0.66 2 1 C2.88671875 3.765625 2.88671875 3.765625 3.6875 7.25 C3.95949219 8.38953125 4.23148438 9.5290625 4.51171875 10.703125 C4.98125743 13.87345016 4.85600597 15.94365653 4 19 C3.01 19.33 2.02 19.66 1 20 C-1.21452021 15.64703089 -1.07786638 11.91995366 -0.625 7.1875 C-0.56828125 6.49462891 -0.5115625 5.80175781 -0.453125 5.08789062 C-0.31269396 3.39101554 -0.15780593 1.69534752 0 0 Z " fill="#5D7093" transform="translate(172,316)"/>
<path d="M0 0 C4.21365034 6.32047551 4.3482453 15.51272597 4 23 C2.68 23 1.36 23 0 23 C0 15.41 0 7.82 0 0 Z " fill="#6A7C9D" transform="translate(147,340)"/>
<path d="M0 0 C0.99 0.495 0.99 0.495 2 1 C2.59781417 3.51081952 3.08169264 5.95854789 3.5 8.5 C3.75523853 9.9650659 4.01174131 11.42991214 4.26953125 12.89453125 C4.39279785 13.60303223 4.51606445 14.3115332 4.64306641 15.04150391 C5.08077429 17.44320889 5.61921171 19.8135865 6.1875 22.1875 C6.85004608 25.29637005 7.20327882 27.84917824 7 31 C6.34 30.67 5.68 30.34 5 30 C2.08399097 20.30426997 1.10735601 10.03134264 0 0 Z " fill="#8E9DC2" transform="translate(144,212)"/>
<path d="M0 0 C4.12197462 4.12197462 5.79411069 10.46693753 6.2578125 16.171875 C6.25102118 18.79332289 6.18206986 21.38527458 6 24 C3.74330185 21.74330185 3.55497844 20.80436406 2.9296875 17.75390625 C2.75566406 16.91666016 2.58164063 16.07941406 2.40234375 15.21679688 C2.14130859 13.90291992 2.14130859 13.90291992 1.875 12.5625 C1.60236328 11.25442383 1.60236328 11.25442383 1.32421875 9.91992188 C0 3.44319784 0 3.44319784 0 0 Z " fill="#7F91B8" transform="translate(142,264)"/>
<path d="M0 0 C0.66 0 1.32 0 2 0 C2.50297572 2.93701891 3.00249873 5.87455331 3.5 8.8125 C3.64308594 9.64587891 3.78617188 10.47925781 3.93359375 11.33789062 C4.06894531 12.14033203 4.20429688 12.94277344 4.34375 13.76953125 C4.46943359 14.50792236 4.59511719 15.24631348 4.72460938 16.00708008 C5 18 5 18 5 21 C4.01 21 3.02 21 2 21 C1.34 14.07 0.68 7.14 0 0 Z " fill="#516485" transform="translate(174,342)"/>
<path d="M0 0 C0.66 0.33 1.32 0.66 2 1 C2 6.94 2 12.88 2 19 C1.34 18.67 0.68 18.34 0 18 C-0.99841068 14.42973398 -1.13507407 11.00464697 -1.125 7.3125 C-1.12757813 6.35988281 -1.13015625 5.40726562 -1.1328125 4.42578125 C-1 2 -1 2 0 0 Z " fill="#6E7E9A" transform="translate(184,305)"/>
<path d="M0 0 C0.99 0.33 1.98 0.66 3 1 C3.33 2.65 3.66 4.3 4 6 C4.66 6 5.32 6 6 6 C6 7.98 6 9.96 6 12 C4.02 12.99 4.02 12.99 2 14 C1.66179834 12.4176994 1.32964061 10.83410625 1 9.25 C0.814375 8.36828125 0.62875 7.4865625 0.4375 6.578125 C0 4 0 4 0 0 Z " fill="#7993C9" transform="translate(137,133)"/>
<path d="M0 0 C0.66 0.33 1.32 0.66 2 1 C0.625 3 0.625 3 -1 5 C-1.66 5 -2.32 5 -3 5 C-3.08912219 8.83225427 -2.87867729 12.26562152 -2 16 C-2.66 15.67 -3.32 15.34 -4 15 C-4 14.01 -4 13.02 -4 12 C-4.66 12 -5.32 12 -6 12 C-7.4783226 9.04335481 -7.06032783 6.25770263 -7 3 C-4.69631264 1.93347808 -2.35981813 0.93578995 0 0 Z " fill="#A1B6E4" transform="translate(125,111)"/>
<path d="M0 0 C0.33 0 0.66 0 1 0 C4.2126962 9.63808861 4.25897632 18.98629605 3 29 C2.67 29 2.34 29 2 29 C-0.29612756 9.03189066 -0.29612756 9.03189066 0 0 Z " fill="#566B8E" transform="translate(178,297)"/>
<path d="M0 0 C0.99 0 1.98 0 3 0 C3.53414112 1.89212702 4.05178329 3.78891636 4.5625 5.6875 C4.85253906 6.74324219 5.14257812 7.79898438 5.44140625 8.88671875 C6.00124767 12.00695382 5.84690764 13.97693234 5 17 C4.67 15.68 4.34 14.36 4 13 C3.34 13 2.68 13 2 13 C1.855625 11.906875 1.71125 10.81375 1.5625 9.6875 C1.11711896 6.06877013 1.11711896 6.06877013 0 3 C0 2.01 0 1.02 0 0 Z " fill="#7182A9" transform="translate(181,247)"/>
<path d="M0 0 C0.33 0 0.66 0 1 0 C1.41965261 2.20393099 1.80975932 4.41350003 2.1875 6.625 C2.40792969 7.85476562 2.62835938 9.08453125 2.85546875 10.3515625 C3.01935808 14.48866084 2.13192693 16.50943954 0 20 C-2.38402005 16.35385169 -1.74919625 14.16220139 -1 10 C-1.185625 8.96875 -1.37125 7.9375 -1.5625 6.875 C-2.04191053 3.72458792 -1.71026608 2.61570106 0 0 Z " fill="#7A8CB1" transform="translate(181,227)"/>
<path d="M0 0 C2.68748301 1.3437415 3.22669255 3.18422534 4.3359375 5.87890625 C5.47330509 9.51179213 5.75116408 13.21597798 6 17 C4.66666667 15.66666667 3.33333333 14.33333333 2 13 C1.401875 12.566875 0.80375 12.13375 0.1875 11.6875 C-1 10 -1 10 -0.6875 6.5 C-0.460625 5.345 -0.23375 4.19 0 3 C0 2.01 0 1.02 0 0 Z " fill="#8EA6DC" transform="translate(122,174)"/>
<path d="M0 0 C0.66 0 1.32 0 2 0 C2.1953125 2.05078125 2.390625 4.1015625 2.5859375 6.15234375 C2.72257813 6.76207031 2.85921875 7.37179687 3 8 C3.66 8.33 4.32 8.66 5 9 C4.375 15.625 4.375 15.625 1 19 C0.67 12.73 0.34 6.46 0 0 Z " fill="#445877" transform="translate(198,311)"/>
<path d="M0 0 C3.15607625 2.893775 3.60020703 4.68223595 4 9 C4.0686801 12.00230133 4.06004678 14.99766084 4 18 C0.80626843 14.80626843 0.09811818 10.93170168 -0.125 6.5390625 C-0.125 4.35560786 -0.08904106 2.18150585 0 0 Z " fill="#7C8CAE" transform="translate(190,228)"/>
<path d="M0 0 C2 2 2 2 2.1953125 4.3828125 C2.17210937 5.28773438 2.14890625 6.19265625 2.125 7.125 C2.10695312 8.03507812 2.08890625 8.94515625 2.0703125 9.8828125 C2.04710937 10.58148438 2.02390625 11.28015625 2 12 C0.35 12 -1.3 12 -3 12 C-2.69230293 10.18667846 -2.37870936 8.37435655 -2.0625 6.5625 C-1.80146484 5.04849609 -1.80146484 5.04849609 -1.53515625 3.50390625 C-1 1 -1 1 0 0 Z " fill="#8998B6" transform="translate(145,351)"/>
<path d="M0 0 C2.3968665 2.3968665 2.28281133 3.07028314 2.4140625 6.3515625 C2.45273438 7.20234375 2.49140625 8.053125 2.53125 8.9296875 C2.57765625 10.26386719 2.57765625 10.26386719 2.625 11.625 C2.66367188 12.5221875 2.70234375 13.419375 2.7421875 14.34375 C2.83659357 16.5622927 2.92216748 18.78082403 3 21 C2.34 21 1.68 21 1 21 C0.07811539 18.23434618 -0.11785222 16.61716298 -0.09765625 13.76953125 C-0.09282227 12.56586914 -0.09282227 12.56586914 -0.08789062 11.33789062 C-0.07951172 10.50451172 -0.07113281 9.67113281 -0.0625 8.8125 C-0.05798828 7.96751953 -0.05347656 7.12253906 -0.04882812 6.25195312 C-0.03705403 4.16793845 -0.0191189 2.08396023 0 0 Z " fill="#657CAC" transform="translate(127,329)"/>
<path d="M0 0 C0.66666667 1.33333333 1.33333333 2.66666667 2 4 C2.3403125 4.556875 2.680625 5.11375 3.03125 5.6875 C4.3657428 8.87306347 4.43398175 11.81167155 4.625 15.25 C4.69976562 16.51328125 4.77453125 17.7765625 4.8515625 19.078125 C4.90054688 20.04234375 4.94953125 21.0065625 5 22 C2.27471115 19.27471115 2.05811509 16.34355983 1.375 12.6875 C1.2409375 12.02298828 1.106875 11.35847656 0.96875 10.67382812 C0.27006935 7.06991926 -0.15618734 3.67040258 0 0 Z " fill="#98A6CC" transform="translate(139,190)"/>
<path d="M0 0 C0.99 0 1.98 0 3 0 C5.79080349 6.95068039 6.63419196 13.54508438 7 21 C4.27344376 18.27344376 4.22535899 15.95227086 3.5 12.1875 C2.66911189 7.90210428 1.76709341 3.99881052 0 0 Z " fill="#A1B4DE" transform="translate(123,128)"/>
<path d="M0 0 C3.58210393 3.58210393 2.86917124 9.12960214 3 14 C2.82066665 17.05293672 2.45432691 19.97115395 2 23 C1.67 23 1.34 23 1 23 C0.24833087 15.30881404 -0.13690844 7.72772107 0 0 Z " fill="#9BACD5" transform="translate(129,138)"/>
<path d="M0 0 C0.33 0 0.66 0 1 0 C1.9774373 4.30072413 1.98453016 6.15497282 0 10 C0.30378052 12.68993053 0.30378052 12.68993053 1 15 C0.34 15 -0.32 15 -1 15 C-2.97094808 10.07262981 -3.1799928 6.21979128 -3 1 C-2.67 1.66 -2.34 2.32 -2 3 C-1.34 3 -0.68 3 0 3 C0 2.01 0 1.02 0 0 Z " fill="#98ACD8" transform="translate(124,113)"/>
<path d="M0 0 C2.40119059 3.60178588 2.43771322 6.50866369 2.625 10.6875 C2.66367188 11.38939453 2.70234375 12.09128906 2.7421875 12.81445312 C2.8362334 14.54254655 2.9191968 16.27123675 3 18 C2.01 18 1.02 18 0 18 C0 12.06 0 6.12 0 0 Z " fill="#4A5D7F" transform="translate(189,311)"/>
<path d="M0 0 C3 2 3 2 3.73046875 5.0390625 C3.88128906 6.22242188 4.03210938 7.40578125 4.1875 8.625 C4.34605469 9.81351562 4.50460938 11.00203125 4.66796875 12.2265625 C4.77753906 13.14179688 4.88710937 14.05703125 5 15 C4.01 15.33 3.02 15.66 2 16 C1.34 10.72 0.68 5.44 0 0 Z " fill="#728ABD" transform="translate(120,289)"/>
<path d="M0 0 C0.99 0 1.98 0 3 0 C3.85298376 3.67387495 4.10789471 7.0447393 4.0625 10.8125 C4.05347656 11.78832031 4.04445312 12.76414062 4.03515625 13.76953125 C4.02355469 14.50558594 4.01195312 15.24164063 4 16 C1.72525723 12.58788584 1.43370356 10.3431471 0.875 6.3125 C0.70742187 5.13300781 0.53984375 3.95351562 0.3671875 2.73828125 C0.24601563 1.83464844 0.12484375 0.93101562 0 0 Z " fill="#8395BF" transform="translate(138,247)"/>
<path d="M0 0 C2.5654594 2.5654594 2.54046087 4.47686668 3 8 C3.66 8 4.32 8 5 8 C5.33 7.34 5.66 6.68 6 6 C6 6.66 6 7.32 6 8 C6.66 8.33 7.32 8.66 8 9 C5.36 9.33 2.72 9.66 0 10 C0 6.7 0 3.4 0 0 Z " fill="#445672" transform="translate(191,350)"/>
<path d="M0 0 C0.99 0.495 0.99 0.495 2 1 C2.51953125 3.6171875 2.51953125 3.6171875 2.8125 6.875 C2.97685547 8.47988281 2.97685547 8.47988281 3.14453125 10.1171875 C3 13 3 13 0 16 C0 10.72 0 5.44 0 0 Z " fill="#586988" transform="translate(197,279)"/>
<path d="M0 0 C0.66 0.66 1.32 1.32 2 2 C2.66 2.33 3.32 2.66 4 3 C4.05422947 4.4370809 4.09289723 5.87475462 4.125 7.3125 C4.14820313 8.11300781 4.17140625 8.91351563 4.1953125 9.73828125 C4 12 4 12 2 15 C1.66223316 13.2508503 1.32996329 11.50063855 1 9.75 C0.814375 8.77546875 0.62875 7.8009375 0.4375 6.796875 C0 4 0 4 0 0 Z " fill="#7487B2" transform="translate(163,261)"/>
<path d="M0 0 C0.99 0.495 0.99 0.495 2 1 C2 1.66 2 2.32 2 3 C2.99 3.33 3.98 3.66 5 4 C5 6.31 5 8.62 5 11 C4.01 11.495 4.01 11.495 3 12 C0.58314288 7.77050005 -0.34833144 4.87664009 0 0 Z " fill="#92ACE3" transform="translate(110,161)"/>
<path d="M0 0 C0.99 0.33 1.98 0.66 3 1 C3.33 3.97 3.66 6.94 4 10 C3.01 10 2.02 10 1 10 C-0.1577506 6.52674819 -0.06866652 3.63932552 0 0 Z " fill="#7188B6" transform="translate(123,306)"/>
<path d="M0 0 C2.26568725 2.26568725 2.55280451 3.43233985 3.25 6.5 C3.44078125 7.2940625 3.6315625 8.088125 3.828125 8.90625 C3.91320312 9.94265625 3.91320312 9.94265625 4 11 C3.34 11.66 2.68 12.32 2 13 C-0.24828052 8.50343896 -0.16682272 4.92127034 0 0 Z " fill="#8999C1" transform="translate(139,182)"/>
<path d="M0 0 C0.33 0.66 0.66 1.32 1 2 C1.66 2 2.32 2 3 2 C3.33 4.31 3.66 6.62 4 9 C3.01 8.67 2.02 8.34 1 8 C0.01 8.495 0.01 8.495 -1 9 C-1.125 2.25 -1.125 2.25 0 0 Z " fill="#90A9E0" transform="translate(119,162)"/>
<path d="M0 0 C0.33 0.66 0.66 1.32 1 2 C1.66 2 2.32 2 3 2 C3.2226746 3.43534841 3.42761906 4.87345525 3.625 6.3125 C3.74101562 7.11300781 3.85703125 7.91351563 3.9765625 8.73828125 C4 11 4 11 2 14 C0.66416101 9.15758367 -0.25328119 5.06562383 0 0 Z " fill="#98ADDC" transform="translate(129,181)"/>
<path d="M0 0 C1.32 0 2.64 0 4 0 C4 1.98 4 3.96 4 6 C2.35 6.33 0.7 6.66 -1 7 C-0.67 6.01 -0.34 5.02 0 4 C-0.33 3.01 -0.66 2.02 -1 1 C-0.67 0.67 -0.34 0.34 0 0 Z " fill="#34475E" transform="translate(207,349)"/>
<path d="M0 0 C2.55337724 2.55337724 2.43261395 3.95274418 2.75 7.5 C2.84796875 8.4796875 2.9459375 9.459375 3.046875 10.46875 C3 13 3 13 1 15 C1 12.36 1 9.72 1 7 C0.34 7 -0.32 7 -1 7 C-0.67 4.69 -0.34 2.38 0 0 Z " fill="#566A8E" transform="translate(166,319)"/>
<path d="M0 0 C0.99 0.33 1.98 0.66 3 1 C3 3.31 3 5.62 3 8 C2.34 8 1.68 8 1 8 C0.67 8.66 0.34 9.32 0 10 C0 6.7 0 3.4 0 0 Z " fill="#7087B6" transform="translate(154,215)"/>
<path d="M0 0 C0.99 0.33 1.98 0.66 3 1 C2.74438677 3.3431213 2.40729228 5.67843403 2 8 C1.01 8.495 1.01 8.495 0 9 C-1.125 6.75 -1.125 6.75 -2 4 C-1.125 1.6875 -1.125 1.6875 0 0 Z " fill="#7087B5" transform="translate(188,165)"/>
<path d="M0 0 C0.66 0 1.32 0 2 0 C2.12375 0.969375 2.2475 1.93875 2.375 2.9375 C2.684375 4.4534375 2.684375 4.4534375 3 6 C3.66 6.33 4.32 6.66 5 7 C3.35 7.33 1.7 7.66 0 8 C-1.09658936 4.71023192 -0.79953138 3.28696233 0 0 Z " fill="#071530" transform="translate(225,339)"/>
<path d="M0 0 C2.60018816 3.90028225 2.15085514 7.47434569 2 12 C1.34 11.67 0.68 11.34 0 11 C-0.44921875 8.75 -0.44921875 8.75 -0.6875 6 C-0.77386719 5.0925 -0.86023438 4.185 -0.94921875 3.25 C-0.96597656 2.5075 -0.98273438 1.765 -1 1 C-0.67 0.67 -0.34 0.34 0 0 Z " fill="#8499C8" transform="translate(171,187)"/>
<path d="M0 0 C0.99 0.33 1.98 0.66 3 1 C3 2.98 3 4.96 3 7 C0.525 6.01 0.525 6.01 -2 5 C-1.34 3.35 -0.68 1.7 0 0 Z " fill="#7590C7" transform="translate(101,342)"/>
<path d="M0 0 C0.66 0.33 1.32 0.66 2 1 C2 3.31 2 5.62 2 8 C1.01 7.67 0.02 7.34 -1 7 C-1.04254356 5.00045254 -1.04080783 2.99958364 -1 1 C-0.67 0.67 -0.34 0.34 0 0 Z " fill="#7785A0" transform="translate(177,313)"/>
<path d="M0 0 C0.66 0 1.32 0 2 0 C2.20086443 3.71599191 2.1519437 4.77208445 0 8 C-0.66 8 -1.32 8 -2 8 C-1.125 2.25 -1.125 2.25 0 0 Z " fill="#5C6F98" transform="translate(200,213)"/>
<path d="M0 0 C2 1 2 1 2.8515625 3.06640625 C3.10679687 3.89011719 3.36203125 4.71382812 3.625 5.5625 C3.88539063 6.38878906 4.14578125 7.21507812 4.4140625 8.06640625 C4.60742188 8.70449219 4.80078125 9.34257812 5 10 C4.01 10 3.02 10 2 10 C2 9.01 2 8.02 2 7 C1.34 6.67 0.68 6.34 0 6 C0 4.02 0 2.04 0 0 Z " fill="#748AB6" transform="translate(171,206)"/>
<path d="M0 0 C0 2.31 0 4.62 0 7 C-1.32 7 -2.64 7 -4 7 C-4.33 6.01 -4.66 5.02 -5 4 C-1.125 0 -1.125 0 0 0 Z " fill="#7388B2" transform="translate(186,195)"/>
<path d="M0 0 C0.66 1.32 1.32 2.64 2 4 C1.34 4.66 0.68 5.32 0 6 C-0.64767793 8.57061311 -0.64767793 8.57061311 -1 11 C-1.33 11 -1.66 11 -2 11 C-1.85957123 9.35369672 -1.71250671 7.70795821 -1.5625 6.0625 C-1.48128906 5.14597656 -1.40007812 4.22945313 -1.31640625 3.28515625 C-1 1 -1 1 0 0 Z " fill="#7C8EB3" transform="translate(145,351)"/>
<path d="M0 0 C0.66 0.33 1.32 0.66 2 1 C1.95875 1.78375 1.9175 2.5675 1.875 3.375 C1.71271266 6.16116119 1.71271266 6.16116119 4 8 C2.33333333 8 0.66666667 8 -1 8 C-0.67 5.36 -0.34 2.72 0 0 Z " fill="#536582" transform="translate(207,278)"/>
<path d="M0 0 C0.66 0.33 1.32 0.66 2 1 C2 3.31 2 5.62 2 8 C-0.7839183 6.60804085 -0.97898997 4.84424221 -2 2 C-1.34 1.34 -0.68 0.68 0 0 Z " fill="#7182A7" transform="translate(191,223)"/>
<path d="M0 0 C0.99 0 1.98 0 3 0 C3.99 1.98 4.98 3.96 6 6 C3.00306862 5.00102287 1.97290587 4.34869747 0 2 C0 1.34 0 0.68 0 0 Z " fill="#142B46" transform="translate(269,165)"/>
</svg>
